<svg width="962" height="961" viewBox="0 0 962 961" fill="none" xmlns="http://www.w3.org/2000/svg">
<path d="M521.083 435.572H602.586V390.144H653.358V435.572H680.081V315.322H717.492V334.028H736.197L749.558 347.389V400.833H776.281V331.355L784.297 320.666V304.633H837.742V323.339H869.808V363.422H899.203V443.589H944.631V451.605C944.631 709.208 729.517 911.228 483.672 911.228C201.753 911.228 18.7056 678.744 18.7056 451.605C18.7056 421.676 21.3778 398.161 22.7139 390.144H94.8639V291.272H102.881V275.239H126.931L140.292 291.272H153.653V416.866H167.014V435.572H188.392V334.028H233.819V360.75H252.525V408.85H297.953M297.953 408.85V363.422H332.692L346.053 379.455V435.572H443.589M297.953 408.85V424.883" stroke="#DBDFF1" stroke-width="30.0625" stroke-linecap="square"/>
<path d="M557.159 734.861C557.159 720.966 507.723 677.408 482.337 657.367C456.95 677.408 407.514 720.966 407.514 734.861C407.514 752.231 422.212 748.222 422.212 740.206C422.212 732.189 426.22 720.164 447.598 720.164C468.975 720.164 472.984 736.197 472.984 749.558C472.984 762.919 462.295 774.944 439.581 774.944C416.867 774.944 397.716 753.567 387.473 742.878C375.893 753.567 344.45 774.944 311.314 774.944C269.895 774.944 272.567 725.508 303.298 725.508C320.667 725.508 330.02 737.533 330.02 737.533C341.6 733.08 364.759 720.966 364.759 708.139C364.759 689.433 347.389 702.794 336.7 702.794C305.97 702.794 301.694 650.686 338.037 650.686C374.379 650.686 382.128 698.786 382.128 698.786L455.614 631.981C435.573 609.712 373.577 558.762 285.928 533.108C198.279 507.455 132.721 505.495 110.898 507.722C124.704 504.605 161.135 498.369 196.409 498.369C370.103 498.369 482.337 602.586 482.337 602.586C482.337 602.586 594.57 498.369 768.264 498.369C803.538 498.369 839.969 504.605 853.775 507.722C831.952 505.495 766.394 507.455 678.745 533.108C591.096 558.762 529.1 609.712 509.059 631.981L582.545 698.786C582.545 698.786 590.294 650.686 626.637 650.686C662.979 650.686 658.703 702.794 627.973 702.794C617.284 702.794 599.914 689.433 599.914 708.139C599.914 720.966 623.074 733.08 634.653 737.533C634.653 737.533 644.006 725.508 661.375 725.508C692.106 725.508 694.778 774.944 653.359 774.944C620.223 774.944 588.78 753.567 577.2 742.878C566.957 753.567 547.806 774.944 525.092 774.944C502.378 774.944 491.689 762.919 491.689 749.558C491.689 736.197 495.698 720.164 517.075 720.164C538.453 720.164 542.462 732.189 542.462 740.206C542.462 748.222 557.159 752.231 557.159 734.861Z" stroke="#DBDFF1" stroke-width="15.0312" stroke-linecap="round" stroke-linejoin="round"/>
<path d="M474.319 489.016C472.092 489.907 466.303 492.757 460.958 497.033C455.614 501.309 453.387 505.94 452.942 507.722L511.73 507.722C511.285 505.94 509.058 501.308 503.714 497.033C498.369 492.757 492.579 489.907 490.352 489.016L498.369 419.538L490.352 416.866L495.697 350.06L490.352 348.724L495.697 280.583L490.352 279.247L495.697 232.483C499.26 237.827 507.989 255.998 514.402 285.927C520.816 315.856 525.091 371.438 525.091 371.438C534.444 351.397 538.452 312.649 538.452 291.272C538.452 269.894 531.327 236.046 527.764 221.794C535.335 228.474 554.219 248.783 569.183 276.574C584.148 304.365 590.561 336.254 591.897 348.724C593.678 344.716 597.241 329.484 597.241 300.624C597.241 251.188 567.847 214.668 553.15 189.727C563.839 194.181 590.026 208.433 609.266 229.81C628.506 251.188 647.568 281.473 654.694 293.944C654.694 281.919 650.151 249.585 631.98 216.449C613.809 183.314 572.746 155.434 554.486 145.635C565.62 144.745 592.966 144.567 613.275 150.98C633.584 157.393 653.803 174.139 661.375 181.711C658.257 170.576 643.738 142.696 610.603 120.25C577.467 97.8029 541.57 96.645 527.764 98.8718C528.654 96.645 531.772 91.3897 537.116 88.183C542.461 84.9763 549.141 84.1747 551.814 84.1747C547.36 81.0571 535.513 74.8219 523.755 74.8219C511.998 74.8219 500.151 83.7293 495.697 88.183C495.252 83.2839 493.826 71.6152 491.689 64.133C489.551 56.6508 485.008 52.1083 482.336 50.7722C479.664 52.1083 475.121 56.6511 472.983 64.1333C470.845 71.6155 469.42 83.2843 468.975 88.1833C464.521 83.7296 452.674 74.8222 440.916 74.8222C429.159 74.8222 417.312 81.0574 412.858 84.175C415.53 84.175 422.211 84.9767 427.555 88.1833C432.9 91.39 436.017 96.6453 436.908 98.8721C423.102 96.6453 387.205 97.8032 354.069 120.25C320.934 142.697 306.415 170.577 303.297 181.711C310.868 174.14 331.088 157.394 351.397 150.98C371.706 144.567 399.052 144.745 410.186 145.636C391.926 155.434 350.863 183.314 332.691 216.45C314.52 249.585 309.978 281.919 309.978 293.944C317.104 281.474 336.165 251.189 355.405 229.811C374.645 208.433 400.833 194.181 411.522 189.727C396.825 214.668 367.43 251.189 367.43 300.625C367.43 329.485 370.993 344.716 372.775 348.725C374.111 336.254 380.524 304.366 395.489 276.575C410.453 248.784 429.337 228.475 436.908 221.794C433.345 236.046 426.219 269.894 426.219 291.272C426.219 312.65 430.228 351.397 439.58 371.439C439.58 371.439 443.856 315.856 450.269 285.927C456.683 255.999 465.412 237.827 468.975 232.483L474.319 279.247L468.975 280.583L474.319 348.725L468.975 350.061L474.319 416.866L466.303 419.539L474.319 489.016Z" fill="#DBDFF1"/>
</svg>
