<svg width="16" height="16" viewBox="0 0 16 16" fill="none" xmlns="http://www.w3.org/2000/svg">
<path d="M15.2319 13.3737L11.6747 12.9451C11.5569 12.9308 11.5069 12.7862 11.5908 12.7022L12.6497 11.6433L8.61402 7.60758L6.79616 9.42366C6.68366 9.53616 6.5033 9.53437 6.39259 9.42366L0.647945 3.67723C0.621359 3.65038 0.606445 3.61412 0.606445 3.57633C0.606445 3.53855 0.621359 3.50229 0.647945 3.47544L1.45152 2.6683C1.50687 2.61294 1.59795 2.61294 1.6533 2.6683L6.59437 7.60758L8.41045 5.79151C8.52295 5.6808 8.7033 5.6808 8.81402 5.79151L13.6604 10.6344L14.7194 9.57544C14.7383 9.55656 14.7622 9.54338 14.7883 9.53741C14.8144 9.53143 14.8417 9.5329 14.867 9.54164C14.8923 9.55039 14.9146 9.56606 14.9315 9.58687C14.9483 9.60768 14.959 9.6328 14.9622 9.65937L15.3908 13.2165C15.4033 13.3076 15.3247 13.3862 15.2319 13.3737Z" fill="#FF708B"/>
</svg>
