<svg width="28" height="28" viewBox="0 0 28 28" fill="none" xmlns="http://www.w3.org/2000/svg">
<rect width="28" height="28" rx="8" fill="#23A698"/>
<path d="M14.7071 6.29289C14.3166 5.90237 13.6834 5.90237 13.2929 6.29289L6.29289 13.2929C5.90237 13.6834 5.90237 14.3166 6.29289 14.7071C6.68342 15.0976 7.31658 15.0976 7.70711 14.7071L8 14.4142V21C8 21.5523 8.44772 22 9 22H11C11.5523 22 12 21.5523 12 21V19C12 18.4477 12.4477 18 13 18H15C15.5523 18 16 18.4477 16 19V21C16 21.5523 16.4477 22 17 22H19C19.5523 22 20 21.5523 20 21V14.4142L20.2929 14.7071C20.6834 15.0976 21.3166 15.0976 21.7071 14.7071C22.0976 14.3166 22.0976 13.6834 21.7071 13.2929L14.7071 6.29289Z" fill="white"/>
</svg>
