<svg width="64" height="64" viewBox="0 0 64 64" fill="none" xmlns="http://www.w3.org/2000/svg">
<path d="M34.6667 28.9778H40.0889V25.9555H43.4667V28.9778H45.2444V20.9778H47.7333V22.2222H48.9778L49.8667 23.1111V26.6667H51.6444V22.0444L52.1778 21.3333V20.2667H55.7333V21.5111H57.8667V24.1778H59.8222V29.5111H62.8444V30.0444C62.8444 47.1822 48.5333 60.6222 32.1778 60.6222C13.4222 60.6222 1.24445 45.1555 1.24445 30.0444C1.24445 28.0533 1.42222 26.4889 1.51111 25.9555H6.31111V19.3778H6.84445V18.3111H8.44445L9.33333 19.3778H10.2222V27.7333H11.1111V28.9778H12.5333V22.2222H15.5556V24H16.8V27.2H19.8222M19.8222 27.2V24.1778H22.1333L23.0222 25.2444V28.9778H29.5111M19.8222 27.2V28.2667" stroke="#23A698" stroke-width="2" stroke-linecap="square"/>
<path d="M37.0667 48.8889C37.0667 47.9644 33.7778 45.0667 32.0889 43.7333C30.4 45.0667 27.1111 47.9644 27.1111 48.8889C27.1111 50.0444 28.0889 49.7778 28.0889 49.2444C28.0889 48.7111 28.3556 47.9111 29.7778 47.9111C31.2 47.9111 31.4667 48.9778 31.4667 49.8667C31.4667 50.7556 30.7556 51.5556 29.2445 51.5556C27.7334 51.5556 26.4593 50.1333 25.7778 49.4222C25.0074 50.1333 22.9156 51.5556 20.7111 51.5556C17.9556 51.5556 18.1334 48.2667 20.1778 48.2667C21.3334 48.2667 21.9556 49.0667 21.9556 49.0667C22.726 48.7704 24.2667 47.9644 24.2667 47.1111C24.2667 45.8667 23.1111 46.7556 22.4 46.7556C20.3556 46.7556 20.0711 43.2889 22.4889 43.2889C24.9067 43.2889 25.4223 46.4889 25.4223 46.4889L30.3111 42.0444C28.9778 40.563 24.8534 37.1733 19.0223 35.4667C13.1911 33.76 8.82966 33.6296 7.37781 33.7778C8.29633 33.5704 10.72 33.1555 13.0667 33.1555C24.6223 33.1555 32.0889 40.0889 32.0889 40.0889C32.0889 40.0889 39.5556 33.1555 51.1111 33.1555C53.4578 33.1555 55.8815 33.5704 56.8 33.7778C55.3482 33.6296 50.9867 33.76 45.1556 35.4667C39.3245 37.1733 35.2 40.563 33.8667 42.0444L38.7556 46.4889C38.7556 46.4889 39.2711 43.2889 41.6889 43.2889C44.1067 43.2889 43.8223 46.7556 41.7778 46.7556C41.0667 46.7556 39.9111 45.8667 39.9111 47.1111C39.9111 47.9644 41.4519 48.7704 42.2223 49.0667C42.2223 49.0667 42.8445 48.2667 44 48.2667C46.0445 48.2667 46.2223 51.5556 43.4667 51.5556C41.2623 51.5556 39.1704 50.1333 38.4 49.4222C37.7185 50.1333 36.4445 51.5556 34.9334 51.5556C33.4223 51.5556 32.7111 50.7556 32.7111 49.8667C32.7111 48.9778 32.9778 47.9111 34.4 47.9111C35.8223 47.9111 36.0889 48.7111 36.0889 49.2444C36.0889 49.7778 37.0667 50.0444 37.0667 48.8889Z" stroke="#23A698" stroke-linecap="round" stroke-linejoin="round"/>
<path d="M31.5556 32.5333C31.4074 32.5926 31.0222 32.7822 30.6667 33.0667C30.3111 33.3511 30.163 33.6593 30.1334 33.7778L34.0445 33.7778C34.0148 33.6592 33.8667 33.3511 33.5111 33.0667C33.1556 32.7822 32.7704 32.5926 32.6222 32.5333L33.1556 27.9111L32.6222 27.7333L32.9778 23.2889L32.6222 23.2L32.9778 18.6667L32.6222 18.5778L32.9778 15.4667C33.2148 15.8222 33.7956 17.0311 34.2222 19.0222C34.6489 21.0133 34.9333 24.7111 34.9333 24.7111C35.5556 23.3778 35.8222 20.8 35.8222 19.3778C35.8222 17.9555 35.3482 15.7037 35.1111 14.7555C35.6148 15.2 36.8711 16.5511 37.8667 18.4C38.8622 20.2489 39.2889 22.3704 39.3778 23.2C39.4963 22.9333 39.7333 21.92 39.7333 20C39.7333 16.7111 37.7778 14.2815 36.8 12.6222C37.5111 12.9185 39.2533 13.8667 40.5333 15.2889C41.8133 16.7111 43.0815 18.7259 43.5556 19.5555C43.5556 18.7555 43.2533 16.6044 42.0445 14.4C40.8356 12.1955 38.1037 10.3407 36.8889 9.68888C37.6296 9.62962 39.4489 9.61776 40.8 10.0444C42.1511 10.4711 43.4963 11.5852 44 12.0889C43.7926 11.3482 42.8267 9.49334 40.6222 8C38.4178 6.50667 36.0296 6.42963 35.1111 6.57778C35.1704 6.42963 35.3778 6.08001 35.7333 5.86667C36.0889 5.65334 36.5333 5.60001 36.7111 5.60001C36.4148 5.3926 35.6267 4.97779 34.8445 4.97779C34.0622 4.97779 33.2741 5.57038 32.9778 5.86667C32.9482 5.54075 32.8533 4.76445 32.7111 4.26667C32.5689 3.7689 32.2667 3.4667 32.0889 3.37781C31.9111 3.4667 31.6089 3.76892 31.4667 4.2667C31.3245 4.76447 31.2297 5.54077 31.2 5.8667C30.9037 5.5704 30.1156 4.97781 29.3334 4.97781C28.5511 4.97781 27.763 5.39262 27.4667 5.60003C27.6445 5.60003 28.0889 5.65336 28.4445 5.8667C28.8 6.08003 29.0074 6.42966 29.0667 6.5778C28.1482 6.42965 25.76 6.50669 23.5556 8.00002C21.3511 9.49336 20.3852 11.3482 20.1778 12.0889C20.6815 11.5852 22.0267 10.4711 23.3778 10.0445C24.7289 9.61779 26.5482 9.62964 27.2889 9.6889C26.0741 10.3407 23.3422 12.1956 22.1334 14.4C20.9245 16.6045 20.6222 18.7556 20.6222 19.5556C21.0963 18.7259 22.3645 16.7111 23.6445 15.2889C24.9245 13.8667 26.6667 12.9185 27.3778 12.6222C26.4 14.2815 24.4445 16.7111 24.4445 20C24.4445 21.92 24.6815 22.9333 24.8 23.2C24.8889 22.3704 25.3156 20.2489 26.3111 18.4C27.3067 16.5511 28.563 15.2 29.0667 14.7556C28.8297 15.7037 28.3556 17.9556 28.3556 19.3778C28.3556 20.8 28.6222 23.3778 29.2445 24.7111C29.2445 24.7111 29.5289 21.0133 29.9556 19.0222C30.3822 17.0311 30.963 15.8222 31.2 15.4667L31.5556 18.5778L31.2 18.6667L31.5556 23.2L31.2 23.2889L31.5556 27.7333L31.0222 27.9111L31.5556 32.5333Z" fill="#23A698"/>
</svg>
