<svg width="24" height="24" viewBox="0 0 24 24" fill="none" xmlns="http://www.w3.org/2000/svg">
<path d="M21.0884 5.44894C21.0883 5.3797 21.0673 5.31 21.0271 5.25127L19.5732 3.07031C19.508 2.97248 19.3982 2.91375 19.2806 2.91375H18.1761V0.351562C18.1761 0.157406 18.0187 0 17.8245 0H12.7659C12.5718 0 12.4144 0.157406 12.4144 0.351562C12.4144 0.545719 12.5718 0.703125 12.7659 0.703125H17.4729V2.91375H6.52701V0.703172H11.234C11.4282 0.703172 11.5856 0.545766 11.5856 0.351609C11.5856 0.157453 11.4282 4.6875e-05 11.234 4.6875e-05H6.17545C5.98129 4.6875e-05 5.82388 0.157453 5.82388 0.351609V2.9138H4.71937C4.60181 2.9138 4.49203 2.97253 4.42682 3.07036L2.9729 5.25131C2.93264 5.31019 2.91168 5.38013 2.91168 5.44959V6.90572C2.91168 7.49817 3.19818 8.02495 3.63989 8.35486V14.5605H3.26329C3.06914 14.5605 2.91173 14.7179 2.91173 14.912V16.3681C2.91173 16.5623 3.06914 16.7197 3.26329 16.7197H3.63989V19.2433C3.63989 19.4375 3.79729 19.5949 3.99145 19.5949C4.1856 19.5949 4.34301 19.4375 4.34301 19.2433V16.7208H19.657V23.2968H4.34301V20.7757C4.34301 20.5816 4.1856 20.4242 3.99145 20.4242C3.79729 20.4242 3.63989 20.5816 3.63989 20.7757V23.6484C3.63989 23.8426 3.79729 24 3.99145 24H20.0086C20.2028 24 20.3602 23.8426 20.3602 23.6484V16.7197H20.7368C20.9309 16.7197 21.0884 16.5623 21.0884 16.3681V14.912C21.0884 14.7179 20.9309 14.5605 20.7368 14.5605H20.3602V11.3107C20.3602 11.1165 20.2028 10.9591 20.0086 10.9591C19.8145 10.9591 19.6571 11.1165 19.6571 11.3107V14.5605H18.9042V8.67394C19.1552 8.72653 19.4061 8.72658 19.6571 8.67398V9.77822C19.6571 9.97237 19.8145 10.1298 20.0086 10.1298C20.2028 10.1298 20.3602 9.97237 20.3602 9.77822V8.35481C20.8019 8.02491 21.0884 7.49813 21.0884 6.90567C21.0884 6.90567 21.0884 5.44917 21.0884 5.44894ZM20.0798 5.09798H18.053L17.3948 3.61711L19.0925 3.61697L20.0798 5.09798ZM15.1943 5.09798L14.8652 3.61711H16.6254L17.2836 5.09798H15.1943ZM14.1449 3.61711L14.474 5.09798H12.3516V3.61711H14.1449ZM11.6484 5.09798H9.52603L9.85509 3.61711H11.6484V5.09798ZM9.13481 3.61711L8.80575 5.09798H6.71653L7.3747 3.61711H9.13481ZM6.52706 5.80116H8.73614V6.90567C8.73614 7.51472 8.24067 8.01023 7.63162 8.01023C7.02257 8.01023 6.5271 7.51472 6.5271 6.90567L6.52706 5.80116ZM9.43931 5.80116H11.6484V6.90567C11.6484 7.51472 11.153 8.01023 10.5439 8.01023C9.93487 8.01023 9.43935 7.51472 9.43935 6.90567V5.80116H9.43931ZM12.3516 5.80116H14.5606V6.90567C14.5606 7.51472 14.0652 8.01023 13.4561 8.01023C12.8471 8.01023 12.3516 7.51472 12.3516 6.90567V5.80116H12.3516ZM15.2639 5.80116H17.4729V6.90567C17.4729 7.51472 16.9775 8.01023 16.3684 8.01023C15.7594 8.01023 15.2639 7.51472 15.2639 6.90567V5.80116H15.2639ZM4.90748 3.61692L6.60515 3.61706L5.94698 5.09794H3.92015L4.90748 3.61692ZM3.61481 5.80116H5.82388V6.90567C5.82388 7.51472 5.32842 8.01023 4.71937 8.01023C4.11032 8.01023 3.61485 7.51472 3.61485 6.90567L3.61481 5.80116ZM4.34301 8.67394C4.59398 8.72653 4.8449 8.72653 5.09587 8.67389V14.5604H4.34301V8.67394ZM20.3852 16.0165H3.61481V15.2636H20.3852V16.0165ZM10.1923 14.5604H7.25517V10.8945H10.1923V14.5604ZM13.1045 12.3507V14.5604H12.3516V12.3507H13.1045ZM16.0168 12.3507V14.5604H15.2638V12.3507H16.0168ZM18.2009 14.5604H16.7199V11.9991C16.7199 11.8049 16.5625 11.6475 16.3684 11.6475H15.967V11.271C15.967 11.0769 15.8096 10.9195 15.6154 10.9195C15.4213 10.9195 15.2639 11.0769 15.2639 11.271V11.6475H14.9123C14.7181 11.6475 14.5607 11.8049 14.5607 11.9991V14.5604H13.8078V11.9991C13.8078 11.8049 13.6504 11.6475 13.4562 11.6475H13.0549V11.271C13.0549 11.0769 12.8975 10.9195 12.7033 10.9195C12.5092 10.9195 12.3517 11.0769 12.3517 11.271V11.6475H12C11.8058 11.6475 11.6484 11.8049 11.6484 11.9991V14.5604H10.8955V10.5429C10.8955 10.3488 10.7381 10.1914 10.5439 10.1914H6.9036C6.70945 10.1914 6.55204 10.3488 6.55204 10.5429V14.5604H5.79909V8.35472C5.94243 8.24766 6.06942 8.11983 6.17554 7.97573C6.88856 8.94342 8.37478 8.94342 9.08779 7.97573C9.80081 8.94342 11.287 8.94342 12 7.97573C12.7131 8.94342 14.1993 8.94342 14.9123 7.97573C15.6253 8.94342 17.1115 8.94342 17.8245 7.97573C17.9307 8.11978 18.0577 8.24761 18.201 8.35472V14.5604H18.2009ZM20.3852 6.90567C20.3852 7.51472 19.8897 8.01023 19.2807 8.01023C18.6716 8.01023 18.1762 7.51472 18.1762 6.90567V5.80116H20.3852V6.90567H20.3852Z" fill="#383874"/>
<path d="M8.73615 1.80783C8.73615 2.00199 8.89355 2.15939 9.08771 2.15939H14.9122C15.1064 2.15939 15.2638 2.00199 15.2638 1.80783C15.2638 1.61367 15.1064 1.45627 14.9122 1.45627H9.08775C8.8936 1.45622 8.73615 1.61363 8.73615 1.80783Z" fill="#383874"/>
<path d="M11.2719 22.5452H12.7281C13.6223 22.5452 14.3669 21.8926 14.5107 21.0386C14.9469 20.8999 15.2639 20.491 15.2639 20.0094C15.2639 19.5279 14.9469 19.119 14.5107 18.9803C14.3669 18.1263 13.6223 17.4737 12.7281 17.4737H11.2719C10.3778 17.4737 9.63314 18.1263 9.48933 18.9803C9.05311 19.119 8.73615 19.5279 8.73615 20.0094C8.73615 20.491 9.05307 20.8999 9.48933 21.0386C9.6331 21.8926 10.3778 22.5452 11.2719 22.5452ZM12.7281 21.842H11.2719C10.7858 21.842 10.3719 21.5263 10.2248 21.0891H13.7753C13.6281 21.5263 13.2143 21.842 12.7281 21.842ZM11.2719 18.1768H12.7281C13.2143 18.1768 13.6281 18.4926 13.7753 18.9298H10.2248C10.3719 18.4925 10.7858 18.1768 11.2719 18.1768ZM9.81582 19.6329H14.1842C14.3918 19.6329 14.5607 19.8018 14.5607 20.0094C14.5607 20.217 14.3918 20.3859 14.1842 20.3859H9.81582C9.60825 20.3859 9.43932 20.217 9.43932 20.0094C9.43932 19.8018 9.60825 19.6329 9.81582 19.6329Z" fill="#383874"/>
</svg>
