<svg width="24" height="24" viewBox="0 0 24 24" fill="none" xmlns="http://www.w3.org/2000/svg">
<path d="M6.84375 16.7578C6.64959 16.7578 6.49219 16.9152 6.49219 17.1094C6.49219 17.3035 6.64959 17.4609 6.84375 17.4609C7.03791 17.4609 7.19531 17.3035 7.19531 17.1094C7.19531 16.9152 7.03791 16.7578 6.84375 16.7578ZM19.0861 10.6165C19.1583 10.4363 19.0707 10.2316 18.8904 10.1595C18.7103 10.0873 18.5055 10.1749 18.4334 10.3552C17.8565 11.7958 16.4809 12.7266 14.9289 12.7266C12.8482 12.7266 11.1555 11.0338 11.1555 8.95312C11.1555 8.74106 11.1733 8.5312 11.2079 8.32472L12.0419 9.39122C12.1622 9.54502 12.3835 9.57037 12.5354 9.45159C12.6884 9.33197 12.7154 9.111 12.5958 8.95809L11.3327 7.34297C11.2258 7.19447 10.989 7.1438 10.8317 7.27303L9.20705 8.54358C9.05409 8.6632 9.02705 8.88417 9.14667 9.03708C9.2663 9.18998 9.48731 9.21703 9.64017 9.09745L10.4825 8.43877C10.463 8.60878 10.4523 8.7803 10.4523 8.95312C10.4523 11.4215 12.4605 13.4297 14.9288 13.4297C16.77 13.4297 18.4017 12.3255 19.0861 10.6165ZM11.5236 6.59822C11.6732 6.72197 11.8949 6.70083 12.0186 6.55116C12.7387 5.67956 13.7996 5.17969 14.9289 5.17969C16.8316 5.17969 18.4091 6.59559 18.6651 8.42892L17.6399 7.62717C17.487 7.50759 17.266 7.5345 17.1464 7.68755C17.0267 7.8405 17.0538 8.06147 17.2067 8.18105L18.8314 9.45155C18.9608 9.55697 19.2103 9.55453 19.3249 9.39117L20.5954 7.76648C20.715 7.61353 20.688 7.39256 20.535 7.27298C20.3822 7.15341 20.1612 7.18031 20.0415 7.33336L19.3456 8.22328C18.9961 6.10083 17.1488 4.47656 14.9289 4.47656C13.5891 4.47656 12.3307 5.06944 11.4765 6.10327C11.3528 6.25294 11.3739 6.47456 11.5236 6.59822ZM23.2969 14.2125V4.75781C23.2969 3.78853 22.5083 3 21.5391 3H8.20312C7.23384 3 6.44531 3.78853 6.44531 4.75781V5.69189H4.11361C3.39253 5.69189 2.75255 6.12403 2.48316 6.7928C2.48316 6.7928 0.731531 11.1405 0.730969 11.1422C0.716391 11.1861 0.705 11.2059 0.703125 11.2795V14.2125C0.306281 14.2697 0 14.611 0 15.0234V16.3359C0 16.7882 0.368016 17.1562 0.820312 17.1562H3.93867C3.96389 18.7371 5.25698 20.0156 6.84375 20.0156C8.43052 20.0156 9.72356 18.7371 9.74883 17.1562H15.8918C15.9171 18.7371 17.2102 20.0156 18.7969 20.0156C20.3837 20.0156 21.6767 18.7371 21.702 17.1562H23.1797C23.632 17.1562 24 16.7882 24 16.3359V15.0234C24 14.611 23.6937 14.2696 23.2969 14.2125ZM2.83495 7.80127H4.875C4.96547 7.80127 5.03906 7.87486 5.03906 7.96533V9.2768C5.03906 9.32372 5.01891 9.36848 4.98375 9.39961L3.30464 10.8867C3.27455 10.9133 3.23592 10.928 3.19584 10.928H1.57533L2.83495 7.80127ZM0.820312 16.4531C0.755672 16.4531 0.703125 16.4006 0.703125 16.3359V15.0234C0.703125 14.9588 0.755672 14.9062 0.820312 14.9062H4.95159C4.49044 15.3029 4.155 15.8411 4.01316 16.4531H0.820312ZM6.84375 19.3125C5.62894 19.3125 4.64062 18.3242 4.64062 17.1094C4.64062 15.8946 5.62894 14.9062 6.84375 14.9062C8.05856 14.9062 9.04688 15.8946 9.04688 17.1094C9.04688 18.3242 8.05856 19.3125 6.84375 19.3125ZM9.67434 16.4531C9.5325 15.8411 9.19706 15.3029 8.73591 14.9062H13.8443C14.0385 14.9062 14.1959 14.7489 14.1959 14.5547C14.1959 14.3605 14.0385 14.2031 13.8443 14.2031H7.14844V9.35859C7.14844 9.16439 6.99108 9.00703 6.79688 9.00703C6.60267 9.00703 6.44531 9.16439 6.44531 9.35859V14.2031H1.40625V13.2615H2.11945C2.31366 13.2615 2.47102 13.1041 2.47102 12.9099C2.47102 12.7157 2.31366 12.5584 2.11945 12.5584H1.40625V11.631H3.19584C3.40781 11.631 3.612 11.5537 3.77081 11.413L5.44997 9.92592C5.63569 9.76144 5.74219 9.52481 5.74219 9.27675V7.96528C5.74219 7.48711 5.35317 7.09809 4.875 7.09809H3.11817C3.27567 6.67725 3.66033 6.39577 4.11356 6.39497H6.44531V7.71797C6.44531 7.91217 6.60267 8.06953 6.79688 8.06953C6.99108 8.06953 7.14844 7.91217 7.14844 7.71797V4.75781C7.14844 4.17628 7.62159 3.70312 8.20312 3.70312H21.5391C22.1206 3.70312 22.5938 4.17628 22.5938 4.75781V14.2031H15.485C15.2908 14.2031 15.1334 14.3605 15.1334 14.5547C15.1334 14.7489 15.2908 14.9062 15.485 14.9062H16.9047C16.4436 15.3029 16.1081 15.8411 15.9663 16.4531H9.67434ZM18.7969 19.3125C17.5821 19.3125 16.5938 18.3242 16.5938 17.1094C16.5938 15.8946 17.5821 14.9062 18.7969 14.9062C20.0117 14.9062 21 15.8946 21 17.1094C21 18.3242 20.0117 19.3125 18.7969 19.3125ZM23.2969 16.3359C23.2969 16.4006 23.2443 16.4531 23.1797 16.4531H21.6275C21.4856 15.8411 21.1502 15.3029 20.689 14.9062H23.1797C23.2443 14.9062 23.2969 14.9588 23.2969 15.0234V16.3359ZM18.7969 16.7578C18.6027 16.7578 18.4453 16.9152 18.4453 17.1094C18.4453 17.3035 18.6027 17.4609 18.7969 17.4609C18.991 17.4609 19.1484 17.3035 19.1484 17.1094C19.1484 16.9152 18.991 16.7578 18.7969 16.7578Z" fill="#383874"/>
</svg>
