<svg width="24" height="24" viewBox="0 0 24 24" fill="none" xmlns="http://www.w3.org/2000/svg">
<path d="M9.89801 18.7394H10.6749C10.8691 18.7394 11.0265 18.582 11.0265 18.3878C11.0265 18.1937 10.8691 18.0363 10.6749 18.0363H9.89801C9.7038 18.0363 9.54645 18.1937 9.54645 18.3878C9.54645 18.582 9.7038 18.7394 9.89801 18.7394ZM9.89801 20.2425H10.6749C10.8691 20.2425 11.0265 20.085 11.0265 19.8909C11.0265 19.6967 10.8691 19.5393 10.6749 19.5393H9.89801C9.7038 19.5393 9.54645 19.6967 9.54645 19.8909C9.54645 20.085 9.7038 20.2425 9.89801 20.2425ZM16.502 2.95767H20.3867C21.0089 2.95767 21.5152 2.46281 21.5152 1.85461C21.5152 1.24641 21.0089 0.751547 20.3867 0.751547H19.6098C19.4156 0.751547 19.2582 0.908953 19.2582 1.10311C19.2582 1.29727 19.4156 1.45467 19.6098 1.45467H20.3867C20.6213 1.45467 20.8121 1.63411 20.8121 1.85461C20.8121 2.07511 20.6213 2.25455 20.3867 2.25455H16.502C16.3078 2.25455 16.1504 2.41195 16.1504 2.60611C16.1504 2.80027 16.3078 2.95767 16.502 2.95767ZM9.89801 21.7455H10.6749C10.8691 21.7455 11.0265 21.588 11.0265 21.3939C11.0265 21.1997 10.8691 21.0423 10.6749 21.0423H9.89801C9.7038 21.0423 9.54645 21.1997 9.54645 21.3939C9.54645 21.588 9.7038 21.7455 9.89801 21.7455ZM16.502 6.71522H18.8328C19.4551 6.71522 19.9613 6.22036 19.9613 5.61211C19.9613 5.00386 19.4551 4.50905 18.8328 4.50905H18.0559C17.8617 4.50905 17.7043 4.66645 17.7043 4.86061C17.7043 5.05477 17.8617 5.21217 18.0559 5.21217H18.8328C19.0674 5.21217 19.2582 5.39161 19.2582 5.61211C19.2582 5.83266 19.0674 6.01209 18.8328 6.01209H16.502C16.2674 6.01209 16.0766 5.83266 16.0766 5.61211C16.0766 5.41795 15.9192 5.26055 15.725 5.26055C15.5308 5.26055 15.3735 5.41795 15.3735 5.61211C15.3735 6.22041 15.8797 6.71522 16.502 6.71522ZM6.82709 5.98791V6.3637C6.82709 6.55786 6.98445 6.71527 7.17865 6.71527C7.37285 6.71527 7.53021 6.55786 7.53021 6.3637V5.98791C7.53021 5.1458 8.24388 4.46067 9.12106 4.46067H13.3942C13.6288 4.46067 13.8196 4.64011 13.8196 4.86066C13.8196 5.0812 13.6288 5.26059 13.3942 5.26059C13.2 5.26059 13.0427 5.418 13.0427 5.61216C13.0427 5.80631 13.2 5.96372 13.3942 5.96372C14.0165 5.96372 14.5227 5.46886 14.5227 4.86066C14.5227 4.25245 14.0165 3.75759 13.3942 3.75759H9.12106C7.85613 3.75755 6.82709 4.75809 6.82709 5.98791ZM4.84784 5.26059C4.65363 5.26059 4.49627 5.418 4.49627 5.61216C4.49627 5.80631 4.65363 5.96372 4.84784 5.96372C5.47006 5.96372 5.97631 5.46886 5.97631 4.86066C5.97631 4.25245 5.47006 3.75759 4.84784 3.75759H4.07088C3.44862 3.75759 2.94237 4.25245 2.94237 4.86066C2.94237 5.05481 3.09973 5.21222 3.29393 5.21222C3.48813 5.21222 3.64549 5.05481 3.64549 4.86066C3.64549 4.64011 3.83632 4.46072 4.07088 4.46072H4.84784C5.0824 4.46072 5.27318 4.64016 5.27318 4.8607C5.27318 5.08116 5.0824 5.26059 4.84784 5.26059ZM1.74002 5.96372C1.93423 5.96372 2.09159 5.80631 2.09159 5.61216V5.03681C2.09159 3.89039 3.0612 2.95772 4.25295 2.95772H11.0633C12.114 2.95772 12.9688 2.12573 12.9688 1.10316V0.351562C12.9688 0.157406 12.8114 0 12.6172 0C12.423 0 12.2657 0.157406 12.2657 0.351562V1.10306C12.2657 1.73798 11.7263 2.2545 11.0633 2.2545H4.25299C2.67349 2.2545 1.38851 3.50259 1.38851 5.03672V5.61206C1.38846 5.80631 1.54587 5.96372 1.74002 5.96372ZM22.3291 18.4705C22.5233 18.4705 22.6806 18.3131 22.6806 18.1189V13.1273C22.6806 12.519 22.1744 12.0242 21.5521 12.0242H20.3498V10.8854C20.3498 10.2702 19.8493 9.76969 19.2341 9.76969H13.7698C13.1546 9.76969 12.6542 10.2702 12.6542 10.8854V12.0242H11.4519C10.8296 12.0242 10.3234 12.519 10.3234 13.1273V15.7817H8.67954L8.31523 8.02898C8.30177 7.74084 8.06524 7.51514 7.77677 7.51514H6.58067C6.29229 7.51514 6.05576 7.74075 6.04216 8.02889L5.91279 10.7826C5.9037 10.9766 6.05356 11.1412 6.24752 11.1503C6.4391 11.1599 6.60602 11.0096 6.61521 10.8156L6.66659 9.72145H7.69085L7.97562 15.7818H6.38182L6.53815 12.4549C6.54724 12.2609 6.39738 12.0963 6.20341 12.0872C6.01062 12.0774 5.84491 12.2279 5.83573 12.4219L5.67785 15.7818H4.01918L3.6529 7.27959C3.64048 6.99028 3.4039 6.76369 3.11435 6.76369H1.91965C1.63015 6.76369 1.39357 6.99023 1.38106 7.27955L1.00034 16.1182C0.999915 16.1321 1.00001 22.8692 1.00001 22.8844C1.00001 23.4995 1.50049 24 2.11568 24H21.5521C22.1744 24 22.6806 23.5051 22.6806 22.8969V19.7701C22.6806 19.5759 22.5233 19.4185 22.3291 19.4185C22.1349 19.4185 21.9775 19.5759 21.9775 19.7701V22.8969C21.9775 23.1175 21.7867 23.2969 21.5521 23.2969H18.7959V18.5753C18.7959 18.2781 18.5541 18.0363 18.2569 18.0363H15.5241C15.2269 18.0363 14.985 18.2781 14.985 18.5753V23.2969H13.3573V16.8975C13.3573 16.2823 12.8568 15.7818 12.2416 15.7818H11.0264V13.1273C11.0264 12.9068 11.2173 12.7274 11.4518 12.7274H21.5521C21.7866 12.7274 21.9775 12.9068 21.9775 13.1273V18.119C21.9775 18.3131 22.1349 18.4705 22.3291 18.4705ZM6.69954 9.01828L6.73713 8.21827H7.62016L7.65776 9.01828H6.69954ZM15.6881 18.7394H18.0928V23.2969H15.6881V18.7394ZM2.07677 7.46677H2.95718L2.99163 8.26645H2.04232L2.07677 7.46677ZM2.01204 8.96953H3.02191L3.31535 15.7817H1.7186L2.01204 8.96953ZM12.2416 16.4849C12.4691 16.4849 12.6542 16.6699 12.6542 16.8974V23.2969H2.11568C1.8882 23.2969 1.70313 23.1118 1.70313 22.8843V16.4849H12.2416ZM19.6466 12.0242H13.3573V10.8854C13.3573 10.6579 13.5424 10.4728 13.7698 10.4728H19.2341C19.4616 10.4728 19.6466 10.6579 19.6466 10.8854V12.0242ZM19.9982 14.2787H19.2213C19.0271 14.2787 18.8697 14.4361 18.8697 14.6303C18.8697 14.8245 19.0271 14.9819 19.2213 14.9819H19.9982C20.1924 14.9819 20.3498 14.8245 20.3498 14.6303C20.3498 14.4361 20.1924 14.2787 19.9982 14.2787ZM16.8904 14.2787H16.1135C15.9193 14.2787 15.7619 14.4361 15.7619 14.6303C15.7619 14.8245 15.9193 14.9819 16.1135 14.9819H16.8904C17.0846 14.9819 17.242 14.8245 17.242 14.6303C17.242 14.4361 17.0846 14.2787 16.8904 14.2787ZM19.9982 15.7817H19.2213C19.0271 15.7817 18.8697 15.9391 18.8697 16.1333C18.8697 16.3275 19.0271 16.4849 19.2213 16.4849H19.9982C20.1924 16.4849 20.3498 16.3275 20.3498 16.1333C20.3498 15.9391 20.1924 15.7817 19.9982 15.7817ZM13.0057 14.2787C12.8115 14.2787 12.6542 14.4361 12.6542 14.6303C12.6542 14.8245 12.8115 14.9819 13.0057 14.9819H13.7826C13.9768 14.9819 14.1342 14.8245 14.1342 14.6303C14.1342 14.4361 13.9768 14.2787 13.7826 14.2787H13.0057ZM16.8904 15.7817H16.1135C15.9193 15.7817 15.7619 15.9391 15.7619 16.1333C15.7619 16.3275 15.9193 16.4849 16.1135 16.4849H16.8904C17.0846 16.4849 17.242 16.3275 17.242 16.1333C17.242 15.9391 17.0846 15.7817 16.8904 15.7817ZM3.68243 20.2425H4.45934C4.65354 20.2425 4.8109 20.085 4.8109 19.8909C4.8109 19.6967 4.65354 19.5393 4.45934 19.5393H3.68243C3.48823 19.5393 3.33087 19.6967 3.33087 19.8909C3.33087 20.085 3.48823 20.2425 3.68243 20.2425ZM6.7902 21.7455H7.56715C7.76135 21.7455 7.91871 21.588 7.91871 21.3939C7.91871 21.1997 7.76135 21.0423 7.56715 21.0423H6.7902C6.59599 21.0423 6.43863 21.1997 6.43863 21.3939C6.43863 21.588 6.59599 21.7455 6.7902 21.7455ZM6.7902 20.2425H7.56715C7.76135 20.2425 7.91871 20.085 7.91871 19.8909C7.91871 19.6967 7.76135 19.5393 7.56715 19.5393H6.7902C6.59599 19.5393 6.43863 19.6967 6.43863 19.8909C6.43863 20.085 6.59599 20.2425 6.7902 20.2425ZM3.68243 21.7455H4.45934C4.65354 21.7455 4.8109 21.588 4.8109 21.3939C4.8109 21.1997 4.65354 21.0423 4.45934 21.0423H3.68243C3.48823 21.0423 3.33087 21.1997 3.33087 21.3939C3.33087 21.588 3.48823 21.7455 3.68243 21.7455ZM3.68243 18.7394H4.45934C4.65354 18.7394 4.8109 18.582 4.8109 18.3878C4.8109 18.1937 4.65354 18.0363 4.45934 18.0363H3.68243C3.48823 18.0363 3.33087 18.1937 3.33087 18.3878C3.33087 18.582 3.48823 18.7394 3.68243 18.7394ZM6.7902 18.7394H7.56715C7.76135 18.7394 7.91871 18.582 7.91871 18.3878C7.91871 18.1937 7.76135 18.0363 7.56715 18.0363H6.7902C6.59599 18.0363 6.43863 18.1937 6.43863 18.3878C6.43863 18.582 6.59599 18.7394 6.7902 18.7394Z" fill="#383874"/>
</svg>
