<svg width="24" height="24" viewBox="0 0 24 24" fill="none" xmlns="http://www.w3.org/2000/svg">
<g clip-path="url(#clip0_44_1070)">
<path d="M12.1906 0.0619941C12.077 -0.0205528 11.9228 -0.0205528 11.8093 0.0619941L8.25796 2.64223C8.14438 2.72478 8.09685 2.87121 8.14011 3.00476C8.18361 3.1384 8.30821 3.22892 8.4486 3.22892H8.84511V7.42718C8.84511 7.60634 8.99038 7.75151 9.16944 7.75151H14.8303C15.0094 7.75151 15.1547 7.60634 15.1547 7.42718V3.22892H15.5514C15.6919 3.22892 15.8164 3.13845 15.8599 3.00476C15.9032 2.87121 15.8557 2.72478 15.7421 2.64223L12.1906 0.0619941ZM11.9999 4.68574C11.7598 4.68574 11.5491 4.36123 11.5491 3.99115C11.5491 3.66209 11.6923 3.50876 11.9999 3.50876C12.3075 3.50876 12.4509 3.66204 12.4509 3.99115C12.4509 4.36123 12.2402 4.68574 11.9999 4.68574ZM12.9146 5.64734C13.0954 5.6922 13.3984 5.8016 13.3984 6.03003V7.10285H10.6017V6.03003C10.6017 5.80526 10.9064 5.69337 11.0882 5.64668C11.6903 5.49181 12.2879 5.49223 12.9146 5.64734ZM14.506 2.90459V7.10285H14.047V6.03003C14.047 5.54079 13.6912 5.17179 13.0708 5.01776C12.9689 4.99254 12.8671 4.97178 12.7653 4.95363C12.9711 4.70937 13.0996 4.36849 13.0996 3.99115C13.0996 3.30406 12.668 2.86015 11.9999 2.86015C11.3321 2.86015 10.9005 3.3041 10.9005 3.99115C10.9005 4.36784 11.0285 4.70834 11.2337 4.95251C11.131 4.97107 11.0286 4.99231 10.9266 5.01851C10.308 5.17751 9.95305 5.54628 9.95305 6.03003V7.10285H9.49382V2.90459C9.49382 2.79701 9.44146 2.70167 9.36079 2.64265L11.9999 0.725228L14.6391 2.64265C14.5584 2.70171 14.506 2.79701 14.506 2.90459ZM7.0303 15.5516V11.3532H7.42705C7.56744 11.3532 7.69204 11.2627 7.73554 11.129C7.7788 10.9955 7.73132 10.8491 7.61769 10.7665L4.0664 8.18628C3.95282 8.10373 3.79865 8.10373 3.68507 8.18628L0.133536 10.7665C0.0199581 10.8491 -0.0275731 10.9955 0.0156925 11.129C0.0591925 11.2627 0.183786 11.3532 0.324177 11.3532H0.720693V15.5516C0.720693 15.7306 0.865958 15.8759 1.04502 15.8759H6.70593C6.88504 15.8759 7.0303 15.7306 7.0303 15.5516ZM3.87575 12.81C3.63547 12.81 3.42472 12.4855 3.42472 12.1156C3.42472 11.7865 3.56811 11.6332 3.87575 11.6332C4.1834 11.6332 4.32655 11.7865 4.32655 12.1156C4.32655 12.4855 4.1158 12.81 3.87575 12.81ZM4.79043 13.7718C4.97094 13.8166 5.27394 13.9257 5.27394 14.1544V15.2272H2.47729V14.1544C2.47729 13.9297 2.78197 13.8178 2.96357 13.7712C3.56638 13.6162 4.16352 13.6164 4.79043 13.7718ZM6.38165 11.0289V15.2272H5.9226V14.1544C5.9226 13.665 5.56682 13.2959 4.94647 13.1421C4.84447 13.1169 4.74261 13.0962 4.64085 13.0781C4.84668 12.8338 4.97521 12.4929 4.97521 12.1155C4.97521 11.4284 4.54363 10.9845 3.87575 10.9845C3.20769 10.9845 2.77611 11.4285 2.77611 12.1155C2.77611 12.4923 2.90418 12.8328 3.10944 13.0769C3.00665 13.0954 2.90413 13.1166 2.80227 13.1427C2.18361 13.3019 1.82868 13.6706 1.82868 14.1544V15.2272H1.36944V11.0288C1.36944 10.9212 1.31708 10.8259 1.23641 10.767L3.87575 8.84942L6.51468 10.7668C6.434 10.8259 6.38165 10.9213 6.38165 11.0289ZM12.1906 16.3105C12.077 16.2281 11.9228 16.2281 11.8093 16.3105L8.25772 18.8907C8.14415 18.9732 8.09661 19.1198 8.13988 19.2535C8.18338 19.3869 8.30797 19.4775 8.44836 19.4775H8.84511V23.6757C8.84511 23.8548 8.99038 24.0001 9.16944 24.0001H14.8303C15.0094 24.0001 15.1547 23.8548 15.1547 23.6757V19.4775H15.5512C15.6916 19.4775 15.8162 19.3869 15.8597 19.2535C15.9029 19.1198 15.8555 18.9735 15.7419 18.8907L12.1906 16.3105ZM11.9999 20.9342C11.7598 20.9342 11.5491 20.6096 11.5491 20.2397C11.5491 19.9107 11.6923 19.7575 11.9999 19.7575C12.3075 19.7575 12.4507 19.9107 12.4507 20.2397C12.4507 20.6096 12.24 20.9342 11.9999 20.9342ZM12.9144 21.8959C13.0949 21.9407 13.3981 22.0501 13.3981 22.2785V23.3514H10.6017V22.2785C10.6017 22.0539 10.9063 21.942 11.0881 21.8953C11.6906 21.7401 12.2881 21.7403 12.9144 21.8959ZM14.506 19.1532V23.3514H14.0468V22.2786C14.0468 21.7894 13.691 21.4205 13.0707 21.2663C12.9687 21.2411 12.8669 21.2203 12.7651 21.2022C12.9709 20.9579 13.0994 20.617 13.0994 20.2397C13.0994 19.5526 12.6678 19.1088 11.9999 19.1088C11.3321 19.1088 10.9005 19.5526 10.9005 20.2397C10.9005 20.6164 11.0286 20.9569 11.2337 21.201C11.131 21.2196 11.0286 21.2408 10.9266 21.267C10.308 21.4262 9.95305 21.7948 9.95305 22.2786V23.3514H9.49382V19.1532C9.49382 19.0455 9.44146 18.9502 9.36079 18.8911L11.9999 16.9739L14.6391 18.8913C14.5584 18.9502 14.506 19.0457 14.506 19.1532ZM23.8663 10.7665L20.315 8.18628C20.2014 8.10373 20.0472 8.10373 19.9336 8.18628L16.3821 10.7665C16.2685 10.8491 16.221 10.9955 16.2643 11.129C16.3078 11.2627 16.4323 11.3532 16.5727 11.3532H16.9695V15.5516C16.9695 15.7306 17.1148 15.8759 17.2938 15.8759H22.9547C23.1338 15.8759 23.2791 15.7306 23.2791 15.5516V11.3532H23.6756C23.816 11.3532 23.9405 11.2627 23.9841 11.129C24.0274 10.9955 23.9798 10.8491 23.8663 10.7665ZM20.1243 12.81C19.884 12.81 19.6732 12.4855 19.6732 12.1156C19.6732 11.7865 19.8166 11.6332 20.1243 11.6332C20.4319 11.6332 20.5751 11.7865 20.5751 12.1156C20.5751 12.4855 20.3644 12.81 20.1243 12.81ZM21.0389 13.7718C21.2195 13.8166 21.5225 13.9257 21.5225 14.1544V15.2272H18.7258V14.1544C18.7258 13.9297 19.0305 13.8178 19.2121 13.7712C19.8149 13.6162 20.4125 13.6164 21.0389 13.7718ZM22.6304 11.0289V15.2272H22.1712V14.1544C22.1712 13.665 21.8154 13.2959 21.195 13.1421C21.0931 13.1169 20.9913 13.0961 20.8895 13.078C21.0953 12.8337 21.2238 12.4928 21.2238 12.1155C21.2238 11.4284 20.7922 10.9845 20.1243 10.9845C19.4563 10.9845 19.0247 11.4285 19.0247 12.1155C19.0247 12.4922 19.1527 12.8327 19.358 13.0768C19.2551 13.0954 19.1526 13.1166 19.0506 13.1428C18.432 13.302 18.0772 13.6707 18.0772 14.1544V15.2272H17.6182V11.0289C17.6182 10.9213 17.5658 10.8259 17.4852 10.7669L20.1243 8.84951L22.7635 10.7669C22.6828 10.8259 22.6304 10.9213 22.6304 11.0289ZM4.57401 6.86651C5.14335 6.04451 5.85711 5.31551 6.6644 4.72151L5.9353 4.62874C5.75774 4.60615 5.63188 4.44378 5.65447 4.26612C5.67707 4.08832 5.83902 3.96143 6.01724 3.98538L7.60846 4.18779C7.69377 4.19857 7.77126 4.24292 7.82385 4.31088C7.87663 4.37899 7.90007 4.46515 7.88929 4.55042L7.68679 6.14163C7.66588 6.30537 7.52633 6.42499 7.36541 6.42499C7.35168 6.42499 7.33794 6.42415 7.32402 6.42237C7.14646 6.39978 7.0206 6.2374 7.04319 6.05974L7.15677 5.1671C6.36285 5.73218 5.66127 6.4362 5.10735 7.23584C5.04421 7.32673 4.94305 7.37553 4.84044 7.37553C4.77669 7.37553 4.71229 7.35682 4.6559 7.31778C4.50875 7.21573 4.472 7.01365 4.57401 6.86651ZM19.4256 17.6525C18.8564 18.4744 18.1429 19.2035 17.3358 19.7975L18.0645 19.8903C18.2421 19.9129 18.368 20.0752 18.3454 20.253C18.3245 20.4169 18.1849 20.5364 18.024 20.5364C18.0103 20.5364 17.9965 20.5355 17.9826 20.5339L16.3914 20.3314C16.2138 20.3088 16.088 20.1464 16.1106 19.9686L16.3131 18.3774C16.3356 18.1996 16.4989 18.0748 16.6758 18.0965C16.8534 18.1191 16.9792 18.2815 16.9566 18.4593L16.8431 19.3521C17.637 18.787 18.3385 18.0829 18.8923 17.2834C18.9943 17.136 19.1967 17.0997 19.3435 17.2013C19.4908 17.3033 19.5276 17.5054 19.4256 17.6525ZM7.8464 20.1749C7.78579 20.2771 7.67788 20.3339 7.56726 20.3339C7.51086 20.3339 7.45386 20.3193 7.40211 20.2885C6.51932 19.7652 5.72366 19.0814 5.0631 18.2901L4.96016 19.1002C4.93925 19.2638 4.79971 19.3835 4.63879 19.3835C4.62505 19.3835 4.61132 19.3827 4.5974 19.381C4.41983 19.3584 4.29397 19.196 4.31657 19.0182L4.51883 17.427C4.5298 17.3417 4.57415 17.2642 4.64216 17.2116C4.70994 17.1589 4.79502 17.1356 4.8816 17.1462L6.47282 17.3487C6.65038 17.3713 6.77624 17.5337 6.75365 17.7115C6.73105 17.8893 6.56699 18.013 6.39088 17.9923L5.57216 17.8881C6.18322 18.6175 6.91808 19.2477 7.73272 19.7307C7.88694 19.8219 7.9378 20.0209 7.8464 20.1749ZM16.1534 4.34388C16.2448 4.18962 16.4443 4.13895 16.5976 4.2304C17.4806 4.7539 18.2762 5.43771 18.9365 6.22901L19.0395 5.41892C19.0621 5.24112 19.2255 5.11517 19.4023 5.13818C19.5799 5.16078 19.7057 5.32315 19.6831 5.50081L19.4806 7.09203C19.4697 7.17734 19.4253 7.25482 19.3573 7.30751C19.3003 7.35176 19.2304 7.37538 19.1588 7.37538C19.1453 7.37538 19.1316 7.37454 19.1179 7.37276L17.5269 7.17026C17.3493 7.14767 17.2235 6.98529 17.2461 6.80763C17.2686 6.62984 17.431 6.50271 17.6088 6.5269L18.4277 6.6311C17.8167 5.90173 17.0817 5.27145 16.267 4.78821C16.1128 4.69695 16.062 4.49792 16.1534 4.34388Z" fill="#383874"/>
</g>
<defs>
<clipPath id="clip0_44_1070">
<rect width="24" height="24" fill="white"/>
</clipPath>
</defs>
</svg>
