<svg width="24" height="24" viewBox="0 0 24 24" fill="none" xmlns="http://www.w3.org/2000/svg">
<path d="M4.1124 22.6573H3.41511C2.68165 22.6564 1.97848 22.3647 1.45985 21.8461C0.941223 21.3274 0.649479 20.6243 0.648621 19.8908V14.5589C0.650681 12.7343 1.37643 10.985 2.66663 9.69477C3.95684 8.40456 5.70615 7.67882 7.53078 7.67676C8.20213 7.67688 8.8505 7.92128 9.3549 8.36433C9.8593 8.80737 10.1853 9.41881 10.272 10.0845C10.2821 10.1695 10.2582 10.2551 10.2056 10.3225C10.1529 10.39 10.0757 10.4339 9.99079 10.4447C9.90589 10.4554 9.82017 10.4322 9.75231 10.3801C9.68445 10.3279 9.63995 10.2511 9.62851 10.1663C9.5619 9.65708 9.31232 9.1895 8.92633 8.85078C8.54035 8.51206 8.04432 8.32532 7.53078 8.32541C5.87813 8.32729 4.29371 8.98464 3.12511 10.1532C1.95651 11.3218 1.29916 12.9063 1.29727 14.5589V19.8908C1.29796 20.4523 1.52131 20.9906 1.91833 21.3876C2.31535 21.7846 2.85363 22.008 3.41511 22.0087H4.1124C5.58063 22.0066 6.98808 21.4222 8.02597 20.3837C9.06386 19.3452 9.64742 17.9374 9.64862 16.4692V12.8984C9.64862 12.8124 9.68279 12.7299 9.74361 12.669C9.80444 12.6082 9.88693 12.5741 9.97295 12.5741C10.059 12.5741 10.1415 12.6082 10.2023 12.669C10.2631 12.7299 10.2973 12.8124 10.2973 12.8984V16.4692C10.2956 18.1093 9.64349 19.6818 8.48407 20.8418C7.32464 22.0018 5.7525 22.6547 4.1124 22.6573Z" fill="#383874"/>
<path d="M14.05 10.4497C14.0363 10.4498 14.0225 10.449 14.0089 10.4471C13.9235 10.4363 13.846 10.392 13.7933 10.324C13.7407 10.256 13.7172 10.1699 13.728 10.0845C13.8143 9.41836 14.14 8.80634 14.6444 8.3627C15.1488 7.91905 15.7974 7.67408 16.4692 7.67351C16.9599 7.67359 17.4491 7.7261 17.9286 7.83016C17.9706 7.83886 18.0104 7.85581 18.0458 7.88C18.0812 7.9042 18.1114 7.93517 18.1348 7.97112C18.1581 8.00708 18.1741 8.0473 18.1818 8.08947C18.1895 8.13164 18.1888 8.17492 18.1796 8.2168C18.1705 8.25869 18.1532 8.29834 18.1286 8.33348C18.1041 8.36862 18.0728 8.39854 18.0366 8.42152C18.0004 8.4445 17.96 8.46007 17.9178 8.46734C17.8755 8.47461 17.8323 8.47344 17.7905 8.46389C17.356 8.36958 16.9128 8.32207 16.4682 8.32216C15.9543 8.32252 15.458 8.50983 15.072 8.84915C14.6861 9.18847 14.4367 9.65662 14.3705 10.1663C14.3606 10.2444 14.3226 10.3162 14.2636 10.3683C14.2047 10.4205 14.1288 10.4494 14.05 10.4497Z" fill="#383874"/>
<path d="M20.5849 22.6573H19.8876C18.2475 22.6547 16.6753 22.0018 15.5159 20.8418C14.3565 19.6818 13.7044 18.1093 13.7027 16.4692V12.8984C13.7027 12.8124 13.7369 12.7299 13.7977 12.669C13.8585 12.6082 13.941 12.5741 14.027 12.5741C14.113 12.5741 14.1955 12.6082 14.2564 12.669C14.3172 12.7299 14.3513 12.8124 14.3513 12.8984V16.4692C14.3525 17.9374 14.9361 19.3452 15.974 20.3837C17.0119 21.4222 18.4193 22.0066 19.8876 22.0086H20.5849C21.1463 22.008 21.6846 21.7846 22.0816 21.3876C22.4787 20.9906 22.702 20.4523 22.7027 19.8908V14.5589C22.703 13.0986 22.1902 11.6846 21.2539 10.5639C21.2005 10.4978 21.1752 10.4133 21.1834 10.3287C21.1917 10.244 21.2328 10.166 21.298 10.1114C21.3632 10.0569 21.4472 10.03 21.5319 10.0368C21.6167 10.0435 21.6954 10.0833 21.7511 10.1475C22.7852 11.3849 23.3516 12.9463 23.3513 14.5589V19.8908C23.3505 20.6243 23.0587 21.3274 22.5401 21.8461C22.0215 22.3647 21.3183 22.6564 20.5849 22.6573Z" fill="#383874"/>
<path d="M19.3025 13.7731C19.2411 13.7732 19.181 13.7557 19.1293 13.7228L13.0054 9.84779C12.9591 9.81857 12.921 9.77811 12.8946 9.7302C12.8681 9.68228 12.8543 9.62845 12.8542 9.57373V1.34692C12.8542 1.26091 12.8884 1.17841 12.9492 1.11759C13.0101 1.05677 13.0926 1.0226 13.1786 1.0226C13.2646 1.0226 13.3471 1.05677 13.4079 1.11759C13.4687 1.17841 13.5029 1.26091 13.5029 1.34692V9.39503L19.476 13.1747C19.5354 13.2123 19.5809 13.2681 19.6058 13.3339C19.6307 13.3996 19.6336 13.4716 19.614 13.5391C19.5945 13.6066 19.5535 13.6659 19.4973 13.7081C19.4411 13.7503 19.3727 13.7731 19.3025 13.7731Z" fill="#383874"/>
<path d="M4.69781 13.7731C4.62754 13.7731 4.55916 13.7503 4.50297 13.7081C4.44678 13.6659 4.40582 13.6066 4.38624 13.5391C4.36667 13.4716 4.36955 13.3996 4.39445 13.3339C4.41935 13.2681 4.46492 13.2123 4.5243 13.1747L10.498 9.39503V1.34692C10.498 1.26091 10.5322 1.17841 10.593 1.11759C10.6538 1.05677 10.7363 1.0226 10.8224 1.0226C10.9084 1.0226 10.9909 1.05677 11.0517 1.11759C11.1125 1.17841 11.1467 1.26091 11.1467 1.34692V9.57373C11.1467 9.62845 11.1328 9.68228 11.1064 9.7302C11.0799 9.77811 11.0418 9.81857 10.9955 9.84779L4.871 13.7228C4.81924 13.7557 4.75915 13.7732 4.69781 13.7731Z" fill="#383874"/>
<path d="M5.95819 15.7622C5.88792 15.7622 5.81954 15.7394 5.76335 15.6972C5.70716 15.655 5.66619 15.5957 5.64662 15.5282C5.62705 15.4607 5.62993 15.3887 5.65483 15.3229C5.67973 15.2572 5.72529 15.2014 5.78468 15.1638L11.8268 11.342C11.8787 11.3092 11.9387 11.2918 12 11.2918C12.0613 11.2918 12.1214 11.3092 12.1732 11.342L18.2157 15.1651C18.253 15.1872 18.2855 15.2166 18.3113 15.2515C18.337 15.2864 18.3555 15.3261 18.3657 15.3682C18.3758 15.4104 18.3774 15.4542 18.3703 15.497C18.3633 15.5398 18.3477 15.5807 18.3245 15.6174C18.3014 15.654 18.2711 15.6857 18.2355 15.7104C18.1998 15.7352 18.1596 15.7525 18.1172 15.7615C18.0747 15.7704 18.0309 15.7707 17.9884 15.7624C17.9458 15.7542 17.9053 15.7374 17.8693 15.7132L12 12L6.12976 15.7132C6.07834 15.7454 6.01886 15.7624 5.95819 15.7622Z" fill="#383874"/>
<path d="M19.8244 11.4866C19.3352 11.4866 18.8571 11.3416 18.4504 11.0698C18.0438 10.7981 17.7268 10.4119 17.5396 9.95999C17.3525 9.50811 17.3035 9.01088 17.3989 8.53117C17.4943 8.05146 17.7298 7.61082 18.0757 7.26497C18.4215 6.91912 18.8622 6.68359 19.3419 6.58817C19.8216 6.49275 20.3188 6.54172 20.7707 6.72889C21.2226 6.91607 21.6088 7.23303 21.8806 7.63971C22.1523 8.04639 22.2973 8.52452 22.2973 9.01362C22.2966 9.66926 22.0358 10.2978 21.5722 10.7614C21.1086 11.225 20.48 11.4858 19.8244 11.4866ZM19.8244 7.1893C19.4635 7.1893 19.1108 7.29629 18.8108 7.49675C18.5108 7.69721 18.277 7.98213 18.1389 8.31548C18.0008 8.64884 17.9647 9.01565 18.0351 9.36953C18.1055 9.72342 18.2792 10.0485 18.5344 10.3036C18.7895 10.5588 19.1146 10.7325 19.4684 10.8029C19.8223 10.8733 20.1891 10.8372 20.5225 10.6991C20.8558 10.561 21.1408 10.3272 21.3412 10.0272C21.5417 9.72715 21.6487 9.37444 21.6487 9.01362C21.6481 8.52997 21.4557 8.06629 21.1137 7.72429C20.7717 7.3823 20.308 7.1899 19.8244 7.1893Z" fill="#383874"/>
<path d="M19.2227 9.9399C19.1585 9.93995 19.0958 9.92096 19.0424 9.88535C18.9891 9.84974 18.9475 9.79909 18.9229 9.73983C18.8983 9.68056 18.8918 9.61533 18.9043 9.5524C18.9168 9.48946 18.9477 9.43165 18.9931 9.38627L20.197 8.18271C20.2269 8.15173 20.2627 8.12702 20.3023 8.11003C20.3418 8.09303 20.3844 8.08408 20.4274 8.08371C20.4705 8.08333 20.5132 8.09154 20.5531 8.10785C20.5929 8.12415 20.6291 8.14824 20.6596 8.17869C20.69 8.20914 20.7141 8.24535 20.7304 8.28521C20.7467 8.32507 20.755 8.36777 20.7546 8.41084C20.7542 8.4539 20.7453 8.49646 20.7283 8.53603C20.7113 8.5756 20.6866 8.61138 20.6556 8.6413L19.452 9.84487C19.3912 9.9057 19.3087 9.93988 19.2227 9.9399Z" fill="#383874"/>
<path d="M20.4263 9.9399C20.3402 9.93988 20.2578 9.9057 20.197 9.84487L18.9931 8.6413C18.963 8.61117 18.9391 8.5754 18.9228 8.53604C18.9065 8.49668 18.8981 8.45449 18.8981 8.41189C18.8981 8.36929 18.9066 8.32711 18.9229 8.28776C18.9392 8.24841 18.9631 8.21266 18.9932 8.18255C19.0234 8.15243 19.0591 8.12855 19.0985 8.11226C19.1379 8.09598 19.18 8.0876 19.2226 8.08762C19.2652 8.08763 19.3074 8.09604 19.3468 8.11235C19.3861 8.12867 19.4219 8.15258 19.452 8.18271L20.6555 9.38628C20.7009 9.43163 20.7318 9.48942 20.7443 9.55232C20.7568 9.61522 20.7504 9.68042 20.7258 9.73968C20.7013 9.79893 20.6597 9.84958 20.6064 9.88522C20.5531 9.92086 20.4904 9.93988 20.4263 9.9399Z" fill="#383874"/>
<path d="M2.9643 18.8601C2.91894 18.8601 2.87409 18.8506 2.83263 18.8322C2.82484 18.8286 2.82906 18.827 2.84301 18.8192C2.76973 18.8606 2.68327 18.8718 2.60187 18.8506C2.52047 18.8293 2.4505 18.7773 2.40673 18.7055C2.36296 18.6336 2.34882 18.5476 2.36729 18.4655C2.38575 18.3835 2.43539 18.3118 2.50571 18.2656C2.59436 18.2129 2.69467 18.1829 2.79771 18.1783C2.90075 18.1737 3.00332 18.1947 3.0963 18.2393C3.16428 18.2695 3.21982 18.3221 3.25362 18.3884C3.28742 18.4546 3.29742 18.5305 3.28195 18.6032C3.26648 18.676 3.22648 18.7412 3.16865 18.788C3.11082 18.8347 3.03868 18.8602 2.9643 18.8601Z" fill="#383874"/>
<path d="M4.25808 20.7032C4.21336 20.7031 4.16917 20.6936 4.12835 20.6754C4.12024 20.6718 4.12446 20.6702 4.1384 20.6624C4.0649 20.7073 3.97656 20.7212 3.89281 20.701C3.80905 20.6808 3.73675 20.6282 3.69181 20.5547C3.64687 20.4812 3.63296 20.3929 3.65315 20.3091C3.67335 20.2254 3.72598 20.1531 3.79948 20.1081C3.88813 20.0554 3.98844 20.0254 4.09148 20.0208C4.19452 20.0162 4.2971 20.0372 4.39008 20.0818C4.45806 20.112 4.5136 20.1646 4.5474 20.2309C4.58119 20.2971 4.5912 20.373 4.57573 20.4457C4.56026 20.5185 4.52026 20.5837 4.46243 20.6305C4.4046 20.6772 4.33245 20.7027 4.25808 20.7026V20.7032Z" fill="#383874"/>
<path d="M6.86432 19.9028C6.81958 19.9026 6.77539 19.893 6.73459 19.8746C6.72713 19.8717 6.73005 19.8701 6.7414 19.8636C6.66816 19.9022 6.5829 19.9114 6.5031 19.8892C6.42331 19.867 6.35503 19.8151 6.31226 19.7442C6.2695 19.6733 6.25549 19.5887 6.27311 19.5077C6.29073 19.4268 6.33864 19.3557 6.40703 19.309C6.4956 19.2559 6.59595 19.2257 6.69909 19.221C6.80223 19.2163 6.90492 19.2373 6.99794 19.2821C7.06592 19.3122 7.12146 19.3648 7.15526 19.4311C7.18906 19.4973 7.19906 19.5732 7.18359 19.6459C7.16812 19.7187 7.12812 19.7839 7.07029 19.8307C7.01246 19.8774 6.94032 19.9029 6.86594 19.9028H6.86432Z" fill="#383874"/>
<path d="M5.15677 17.892C5.11206 17.8918 5.06789 17.8823 5.02704 17.8641C5.01926 17.8605 5.02315 17.8589 5.0371 17.8511C4.96382 17.8925 4.87736 17.9037 4.79596 17.8825C4.71456 17.8612 4.64459 17.8092 4.60082 17.7374C4.55706 17.6655 4.54291 17.5795 4.56138 17.4974C4.57985 17.4154 4.62948 17.3437 4.6998 17.2975C4.78852 17.2448 4.88888 17.2148 4.99197 17.2103C5.09505 17.2057 5.19768 17.2266 5.29072 17.2712C5.35872 17.3014 5.41428 17.3541 5.44807 17.4204C5.48187 17.4866 5.49185 17.5625 5.47634 17.6353C5.46083 17.7081 5.42077 17.7733 5.36288 17.82C5.30499 17.8668 5.2328 17.8922 5.1584 17.892H5.15677Z" fill="#383874"/>
<path d="M7.68943 17.375C7.64415 17.375 7.59939 17.3654 7.55808 17.3468C7.55029 17.3436 7.55418 17.3419 7.56683 17.3348C7.49357 17.3751 7.40758 17.3855 7.32681 17.3639C7.24604 17.3423 7.17673 17.2904 7.13334 17.2189C7.08995 17.1475 7.07583 17.062 7.09394 16.9804C7.11204 16.8988 7.16097 16.8273 7.23051 16.7809C7.31913 16.728 7.41947 16.6978 7.52258 16.6931C7.62569 16.6884 7.72836 16.7093 7.82143 16.7539C7.8896 16.784 7.94534 16.8366 7.97929 16.9029C8.01323 16.9693 8.02331 17.0452 8.00782 17.1181C7.99233 17.191 7.95222 17.2563 7.89424 17.3031C7.83626 17.3499 7.76393 17.3753 7.68943 17.375Z" fill="#383874"/>
<path d="M3.97881 15.9931C3.93345 15.9931 3.88859 15.9836 3.84713 15.9652C3.83967 15.962 3.84356 15.96 3.85621 15.9532C3.78284 15.9946 3.69624 16.0059 3.61473 15.9845C3.53322 15.9632 3.4632 15.911 3.41949 15.839C3.37578 15.767 3.36182 15.6808 3.38056 15.5986C3.3993 15.5165 3.44927 15.4449 3.51989 15.3989C3.60855 15.3461 3.7089 15.316 3.812 15.3114C3.91511 15.3067 4.01776 15.3277 4.11081 15.3723C4.17878 15.4025 4.23432 15.4551 4.26812 15.5214C4.30192 15.5876 4.31192 15.6635 4.29645 15.7362C4.28099 15.809 4.24098 15.8742 4.18315 15.9209C4.12532 15.9677 4.05318 15.9932 3.97881 15.9931Z" fill="#383874"/>
<path d="M21.3149 18.8601C21.2674 18.8601 21.2205 18.8497 21.1774 18.8296C21.0983 18.8631 21.0093 18.8646 20.9292 18.8339C20.849 18.8032 20.7838 18.7426 20.7473 18.6649C20.7293 18.6267 20.719 18.5853 20.7172 18.5432C20.7153 18.501 20.7218 18.4589 20.7364 18.4193C20.751 18.3797 20.7733 18.3433 20.8021 18.3125C20.8309 18.2816 20.8655 18.2567 20.904 18.2394C20.997 18.1948 21.0995 18.1739 21.2026 18.1785C21.3056 18.183 21.4059 18.213 21.4946 18.2656C21.5526 18.3042 21.5967 18.3604 21.6203 18.4259C21.6439 18.4915 21.6457 18.5629 21.6256 18.6296C21.6054 18.6963 21.5643 18.7547 21.5084 18.7963C21.4524 18.8378 21.3846 18.8602 21.3149 18.8601Z" fill="#383874"/>
<path d="M20.0209 20.7032C19.9735 20.7032 19.9266 20.6928 19.8837 20.6728C19.8045 20.7062 19.7156 20.7077 19.6353 20.6769C19.5551 20.6462 19.4899 20.5857 19.4533 20.508C19.4354 20.4698 19.4252 20.4284 19.4234 20.3863C19.4216 20.3441 19.4282 20.302 19.4428 20.2624C19.4574 20.2228 19.4797 20.1865 19.5085 20.1556C19.5372 20.1248 19.5718 20.0999 19.6103 20.0825C19.7032 20.0378 19.8057 20.0168 19.9088 20.0213C20.0118 20.0257 20.1121 20.0556 20.2009 20.1081C20.2589 20.1467 20.303 20.2029 20.3266 20.2685C20.3502 20.3341 20.352 20.4056 20.3318 20.4723C20.3116 20.539 20.2705 20.5974 20.2145 20.6389C20.1585 20.6804 20.0906 20.7027 20.0209 20.7026V20.7032Z" fill="#383874"/>
<path d="M17.4143 19.9028C17.3668 19.9028 17.32 19.8923 17.2771 19.872C17.1981 19.9056 17.1092 19.9073 17.029 19.8767C16.9488 19.8461 16.8836 19.7856 16.847 19.7079C16.829 19.6697 16.8188 19.6283 16.817 19.5861C16.8152 19.5439 16.8218 19.5017 16.8364 19.4621C16.851 19.4225 16.8733 19.3862 16.9021 19.3552C16.9309 19.3243 16.9655 19.2995 17.004 19.2821C17.0971 19.2373 17.1997 19.2164 17.3029 19.2211C17.406 19.2258 17.5063 19.256 17.5949 19.309C17.6527 19.3477 17.6966 19.404 17.72 19.4695C17.7434 19.535 17.745 19.6063 17.7248 19.6729C17.7045 19.7394 17.6634 19.7977 17.6075 19.8391C17.5516 19.8805 17.4839 19.9029 17.4143 19.9028Z" fill="#383874"/>
<path d="M19.1228 17.892C19.0753 17.892 19.0284 17.8816 18.9853 17.8615C18.9062 17.8948 18.8173 17.8963 18.7372 17.8656C18.657 17.8349 18.5919 17.7744 18.5553 17.6968C18.5373 17.6586 18.5271 17.6172 18.5252 17.5751C18.5234 17.5329 18.5299 17.4908 18.5445 17.4512C18.5591 17.4116 18.5814 17.3753 18.6101 17.3444C18.6389 17.3135 18.6735 17.2886 18.7119 17.2712C18.805 17.2267 18.9076 17.2058 19.0107 17.2104C19.1137 17.2149 19.2141 17.2449 19.3028 17.2975C19.3609 17.3361 19.405 17.3923 19.4286 17.4579C19.4522 17.5235 19.454 17.595 19.4338 17.6617C19.4136 17.7284 19.3724 17.7868 19.3164 17.8283C19.2604 17.8698 19.1925 17.8921 19.1228 17.892Z" fill="#383874"/>
<path d="M16.5892 17.3747C16.5419 17.3749 16.4951 17.3645 16.4523 17.3442C16.3732 17.3779 16.2841 17.3795 16.2037 17.3488C16.1234 17.3181 16.0581 17.2574 16.0216 17.1795C16.0037 17.1413 15.9935 17.0999 15.9916 17.0577C15.9898 17.0155 15.9964 16.9734 16.011 16.9338C16.0256 16.8942 16.0479 16.8579 16.0767 16.827C16.1055 16.7962 16.1401 16.7713 16.1786 16.7539C16.2717 16.7094 16.3744 16.6885 16.4774 16.6932C16.5805 16.6979 16.6809 16.728 16.7695 16.7809C16.8273 16.8196 16.8712 16.8758 16.8946 16.9414C16.918 17.0069 16.9197 17.0782 16.8994 17.1448C16.8792 17.2113 16.838 17.2696 16.7821 17.311C16.7262 17.3524 16.6585 17.3748 16.5889 17.3747H16.5892Z" fill="#383874"/>
<path d="M20.3001 15.9931C20.2527 15.9931 20.2059 15.9827 20.1629 15.9626C20.0839 15.9961 19.9949 15.9977 19.9147 15.967C19.8344 15.9363 19.7693 15.8756 19.7329 15.7978C19.7148 15.7597 19.7046 15.7183 19.7027 15.6761C19.7008 15.634 19.7074 15.5918 19.722 15.5522C19.7365 15.5126 19.7589 15.4763 19.7876 15.4454C19.8164 15.4145 19.851 15.3897 19.8895 15.3723C19.9826 15.3278 20.0852 15.307 20.1883 15.3116C20.2914 15.3162 20.3917 15.3462 20.4804 15.3989C20.5384 15.4376 20.5823 15.4938 20.6058 15.5594C20.6293 15.6249 20.6311 15.6963 20.6109 15.7629C20.5906 15.8296 20.5495 15.8879 20.4935 15.9294C20.4376 15.9708 20.3697 15.9932 20.3001 15.9931Z" fill="#383874"/>
</svg>
