<svg width="24" height="24" viewBox="0 0 24 24" fill="none" xmlns="http://www.w3.org/2000/svg">
<path d="M10.8984 8.67188H10.1484V9.375H10.8984V8.67188Z" fill="#383874"/>
<path d="M12.3984 8.67188H11.6484V9.375H12.3984V8.67188Z" fill="#383874"/>
<path d="M13.8984 8.67188H13.1484V9.375H13.8984V8.67188Z" fill="#383874"/>
<path d="M21.3516 21.7969V13.125H22.8516V10.9219H21.1298L12.3516 5.08528V3.375H15.3516V0.421875H12.3516V0H11.6484V5.08528L2.91698 10.9219H1.14844V13.125H2.64844V21.7969H1.14844V24H22.8516V21.7969H21.3516ZM20.6484 21.7969H19.1016V13.125H20.6484V21.7969ZM7.89844 13.125V21H8.60156V13.125H10.1484V21.7969H5.60156V13.125H7.89844ZM10.8516 13.125H13.1484V21.7969H10.8516V13.125ZM13.8516 13.125H15.3984V21.7969H13.8516V13.125ZM16.1016 13.125H18.3984V21.7969H16.1016V13.125ZM14.6484 1.125V2.67188H12.3516V1.125H14.6484ZM12.0234 5.69597L19.8623 10.9219H4.18453L12.0234 5.69597ZM1.85156 11.625H22.1484V12.4219H1.85156V11.625ZM3.35156 13.125H4.89844V21.7969H3.35156V13.125ZM22.1484 23.2969H1.85156V22.5H22.1484V23.2969Z" fill="#383874"/>
</svg>
