<svg width="24" height="24" viewBox="0 0 24 24" fill="none" xmlns="http://www.w3.org/2000/svg">
<g clip-path="url(#clip0_44_1067)">
<path d="M23.325 22.1051H21.8265C21.2181 21.5703 20.4725 21.2109 19.665 21.071L21.4724 19.7471C21.6365 19.6268 21.7234 19.4265 21.6991 19.2242C21.6749 19.0226 21.5434 18.849 21.3561 18.7714C19.9552 18.1905 18.3944 18.3541 17.1515 19.2048L17.1524 16.1588C17.1526 15.9554 17.0424 15.7668 16.8647 15.6668C16.6879 15.5672 16.4702 15.5705 16.2966 15.6758C15.7517 16.0063 15.2866 16.4523 14.931 16.9727L14.8847 15.3444H18.0996C19.0704 15.3444 19.8602 14.5546 19.8602 13.584C19.8602 12.7045 19.2118 11.9736 18.368 11.8439C18.3776 11.7696 18.3823 11.6947 18.3823 11.6191C18.3823 10.6485 17.5926 9.85873 16.6218 9.85873H14.8235C14.8314 9.79116 14.8352 9.72286 14.8352 9.65438C14.8352 8.68356 14.0455 7.89383 13.0748 7.89383H10.3783C9.40762 7.89383 8.61789 8.68356 8.61789 9.65438C8.61789 10.2916 8.9559 10.8669 9.49661 11.1784C9.45962 11.3216 9.44076 11.4691 9.44076 11.6191C9.44076 11.6878 9.44479 11.7559 9.45266 11.8236H8.21524L8.07718 6.96952L12.0672 6.97025H12.0674C12.2565 6.97025 12.432 6.86771 12.5248 6.70273C12.6174 6.5383 12.6143 6.33634 12.5167 6.17539C11.9856 5.29905 11.1305 4.69664 10.1529 4.48588L11.5029 3.49712C11.6556 3.38524 11.7363 3.19902 11.7136 3.01097C11.6911 2.82347 11.569 2.66216 11.3947 2.59002C10.2724 2.12456 9.02621 2.23589 8.01383 2.88152L8.01456 0.524594C8.01456 0.335447 7.9122 0.160215 7.74723 0.0673812C7.58261 -0.0252699 7.38028 -0.0221571 7.21878 0.0756209C6.21336 0.685543 5.57524 1.70818 5.46464 2.85918C4.45885 2.23351 3.2282 2.13006 2.11895 2.59002C1.94463 2.66216 1.8225 2.82347 1.79998 3.01097C1.77728 3.19902 1.85803 3.38524 2.01074 3.49712L3.36498 4.48918C2.39397 4.70286 1.5429 5.30454 1.01556 6.17301C0.917783 6.33396 0.91467 6.53611 1.00714 6.70072C1.09997 6.86588 1.2752 6.96842 1.46453 6.96842L3.83922 6.96878H3.8394C4.03313 6.96878 4.19023 6.81168 4.19023 6.61796C4.19023 6.42405 4.03313 6.26694 3.8394 6.26694L1.80071 6.26676C2.33245 5.57426 3.14177 5.14726 4.02397 5.10789C4.2177 5.10313 4.3867 4.97569 4.44475 4.79075C4.50297 4.60563 4.43687 4.40422 4.28032 4.28959L2.69628 3.12926C3.58196 2.86888 4.52952 3.03093 5.2863 3.58519C5.30626 3.59984 5.34379 3.62877 5.40916 3.6837C5.54722 3.79942 5.7404 3.82213 5.90153 3.74193C6.06303 3.66155 6.16135 3.49327 6.1522 3.31328C6.15055 3.27867 6.14927 3.24535 6.14927 3.21861C6.14964 2.28057 6.57902 1.42053 7.31272 0.860042L7.31199 3.37847C7.3118 3.55516 7.41562 3.71684 7.57621 3.79045C7.73661 3.86388 7.92667 3.83696 8.06015 3.72197C8.15097 3.64378 8.20114 3.60442 8.22751 3.58519C8.9841 3.03093 9.93185 2.86888 10.8175 3.12944L9.2117 4.30552C9.05862 4.41777 8.99399 4.61461 9.05093 4.79551C9.10788 4.97697 9.27414 5.10185 9.46457 5.10624C9.46511 5.10624 9.46585 5.10624 9.4664 5.10643C10.366 5.13426 11.1912 5.56254 11.7318 6.26841L5.35221 6.26713C5.15849 6.26713 5.00139 6.42423 5.0012 6.61814C5.0012 6.81186 5.15831 6.96897 5.35203 6.96897H5.36137L5.00047 19.6623C4.99498 19.8561 5.14769 20.0176 5.34123 20.0231C5.34471 20.0231 5.34819 20.0232 5.35148 20.0232C5.54063 20.0232 5.69663 19.8725 5.70213 19.6823L6.06358 6.96915L7.37516 6.96933L7.51596 11.9188C6.82401 12.1563 6.32523 12.8128 6.32523 13.584C6.32523 14.3904 6.87052 15.0714 7.61136 15.279L7.83951 23.2983H5.59922L5.66148 21.1091C5.66697 20.9153 5.51445 20.7538 5.32072 20.7483C5.1259 20.7421 4.9655 20.8956 4.96 21.0891L4.93107 22.1051H0.690366C0.361327 22.1051 0.093811 22.3728 0.093811 22.7017V23.4035C0.093811 23.7324 0.361327 23.9999 0.690366 23.9999H23.325C23.6541 23.9999 23.9216 23.7324 23.9216 23.4035V22.7017C23.9216 22.3727 23.6541 22.1051 23.325 22.1051ZM0.795652 22.807H4.91112L4.8972 23.2981H0.795652V22.807ZM16.4506 16.4131L16.4495 19.666C16.4495 19.8519 16.5584 20.022 16.7274 20.0992C16.8961 20.1767 17.0958 20.1483 17.2364 20.0273C17.3494 19.9299 17.4131 19.8801 17.4468 19.8553C18.4409 19.1273 19.6972 18.938 20.8526 19.3311L18.7515 20.8701C18.5911 20.9877 18.5233 21.194 18.5828 21.3835C18.6425 21.573 18.8155 21.7036 19.0142 21.7091C19.0146 21.7091 19.0149 21.7091 19.0153 21.7093C20.2007 21.7446 21.2836 22.3337 21.9593 23.2981L15.1106 23.2979L14.9757 18.5476C15.1943 17.6888 15.7242 16.9246 16.4506 16.4131ZM11.5076 21.8398L11.4663 23.2968L9.43728 23.2962C9.93991 22.5799 10.6712 22.0676 11.5076 21.8398ZM11.5575 20.0901L10.5218 19.3315C10.8639 19.2161 11.2237 19.1504 11.5846 19.1366L11.5575 20.0901ZM14.4086 23.2977L12.1685 23.297L12.3944 15.3445H14.1824L14.4086 23.2977ZM7.02707 13.584C7.02707 13.0004 7.50205 12.5255 8.08579 12.5255H9.77072C9.91262 12.5255 10.0472 12.457 10.1307 12.3422C10.2136 12.2279 10.2375 12.0798 10.1941 11.9456C10.16 11.8407 10.1426 11.7308 10.1426 11.6193C10.1426 11.4798 10.1695 11.3441 10.2223 11.2161C10.2678 11.106 10.2677 10.985 10.2217 10.8751C10.1757 10.7653 10.0897 10.68 9.97927 10.6351C9.57846 10.4718 9.31955 10.0869 9.31955 9.65457C9.31955 9.07083 9.79452 8.59585 10.3783 8.59585H13.0748C13.6586 8.59585 14.1336 9.07083 14.1336 9.65457C14.1336 9.76608 14.1162 9.87594 14.0823 9.98086C14.0387 10.1147 14.0623 10.263 14.1453 10.3773C14.2288 10.4921 14.3635 10.5606 14.5054 10.5606H16.6216C17.2053 10.5606 17.6803 11.0355 17.6803 11.6193C17.6803 11.7308 17.6631 11.8407 17.6288 11.9458C17.5854 12.0798 17.6092 12.2279 17.6922 12.3422C17.7757 12.4568 17.9103 12.5255 18.0522 12.5255H18.0996C18.6833 12.5255 19.1581 13.0004 19.1581 13.584C19.1581 14.1677 18.6833 14.6427 18.0996 14.6427H11.0678C10.8741 14.6427 10.717 14.7998 10.717 14.9935C10.717 15.1874 10.8741 15.3445 11.0678 15.3445H11.6924L11.6047 18.4339C11.0612 18.4489 10.5191 18.5635 10.0181 18.7714C9.83078 18.849 9.69931 19.0226 9.67495 19.2242C9.6506 19.4265 9.73757 19.6268 9.90182 19.7471L11.5333 20.9422L11.5285 21.1114C10.7963 21.2738 10.1247 21.6172 9.5693 22.1051H8.50766L8.3154 15.3445H9.57077C9.76449 15.3445 9.92159 15.1874 9.92159 14.9935C9.92159 14.7998 9.76449 14.6427 9.57077 14.6427H8.08579C7.50205 14.6427 7.02707 14.1677 7.02707 13.584ZM8.52762 22.807H8.92514C8.84567 22.9148 8.77023 23.0265 8.69992 23.1422C8.67026 23.1913 8.64957 23.2441 8.6362 23.2981H8.54153L8.52762 22.807ZM23.2198 23.2981H22.7602C22.7466 23.245 22.7261 23.1932 22.697 23.1452C22.6261 23.0282 22.5501 22.9156 22.4701 22.807H23.2199V23.2981H23.2198Z" fill="#383874"/>
</g>
<defs>
<clipPath id="clip0_44_1067">
<rect width="24" height="24" fill="white"/>
</clipPath>
</defs>
</svg>
