<svg width="24" height="24" viewBox="0 0 24 24" fill="none" xmlns="http://www.w3.org/2000/svg">
<path d="M15.9276 3.0454C16.0619 3.0454 16.1708 2.9365 16.1708 2.80216C16.1708 2.66782 16.0619 2.55891 15.9276 2.55891C15.7932 2.55891 15.6843 2.66782 15.6843 2.80216C15.6843 2.9365 15.7932 3.0454 15.9276 3.0454Z" fill="#383874"/>
<path d="M3.00002 15.3178C2.86705 15.3178 2.75677 15.4281 2.75677 15.5611V16.8C2.75677 16.933 2.86705 17.0432 3.00002 17.0432C3.13299 17.0432 3.24326 16.933 3.24326 16.8V15.5611C3.24326 15.4249 3.13299 15.3178 3.00002 15.3178Z" fill="#383874"/>
<path d="M4.08004 17.0432C4.21301 17.0432 4.32328 16.933 4.32328 16.8V15.5611C4.32328 15.4281 4.21301 15.3178 4.08004 15.3178C3.94706 15.3178 3.83679 15.4281 3.83679 15.5611V16.8C3.83679 16.933 3.94706 17.0432 4.08004 17.0432Z" fill="#383874"/>
<path d="M5.15999 17.0432C5.29296 17.0432 5.40323 16.933 5.40323 16.8V15.5611C5.40323 15.4281 5.29296 15.3178 5.15999 15.3178C5.02702 15.3178 4.91675 15.4281 4.91675 15.5611V16.8C4.91675 16.933 5.02702 17.0432 5.15999 17.0432Z" fill="#383874"/>
<path d="M19.5665 11.9416C19.1417 11.9416 18.7265 11.8054 18.3341 11.533C18.2238 11.4584 18.0714 11.4843 17.9968 11.5946C17.919 11.7049 17.9481 11.8573 18.0584 11.9319C18.5319 12.2595 19.0411 12.4249 19.5665 12.4249H19.5827C19.7157 12.4249 19.8163 12.3146 19.8163 12.1816C19.8163 12.0487 19.7027 11.9416 19.5665 11.9416Z" fill="#383874"/>
<path d="M9.10707 11.7665C8.9741 11.7665 8.86383 11.8767 8.86383 12.0097V13.9654C8.86383 14.0984 8.9741 14.2086 9.10707 14.2086C9.24005 14.2086 9.35032 14.0984 9.35032 13.9654V12.0097C9.35032 11.8767 9.24005 11.7665 9.10707 11.7665Z" fill="#383874"/>
<path d="M9.10379 9.82702C9.23676 9.82702 9.35027 9.71675 9.35027 9.58053C9.35027 9.44432 9.24 9.33405 9.10379 9.33405C8.96757 9.33405 8.8573 9.44432 8.8573 9.58053C8.8573 9.71675 8.97081 9.82702 9.10379 9.82702Z" fill="#383874"/>
<path d="M3.77516 19.8551C3.35354 19.8551 3.013 20.1957 3.013 20.6173C3.013 21.0292 3.36327 21.3795 3.77516 21.3795C4.19678 21.3795 4.53732 21.0389 4.53732 20.6173C4.53732 20.1892 4.20003 19.8551 3.77516 19.8551ZM3.77516 20.893C3.62922 20.893 3.49949 20.7632 3.49949 20.6173C3.49949 20.4649 3.62273 20.3416 3.77516 20.3416C3.93084 20.3416 4.05084 20.4616 4.05084 20.6173C4.05084 20.7697 3.9276 20.893 3.77516 20.893Z" fill="#383874"/>
<path d="M6.30165 19.8551C5.88003 19.8551 5.53949 20.1957 5.53949 20.6173C5.53949 21.0292 5.88976 21.3795 6.30165 21.3795C6.72327 21.3795 7.06381 21.0389 7.06381 20.6173C7.06381 20.1892 6.72976 19.8551 6.30165 19.8551ZM6.30165 20.893C6.15571 20.893 6.02598 20.7632 6.02598 20.6173C6.02598 20.4649 6.14922 20.3416 6.30165 20.3416C6.45733 20.3416 6.57733 20.4616 6.57733 20.6173C6.57733 20.7697 6.45408 20.893 6.30165 20.893Z" fill="#383874"/>
<path d="M8.82814 19.8551C8.40652 19.8551 8.06598 20.1957 8.06598 20.6173C8.06598 21.0292 8.41625 21.3795 8.82814 21.3795C9.24976 21.3795 9.5903 21.0389 9.5903 20.6173C9.5903 20.1892 9.25625 19.8551 8.82814 19.8551ZM8.82814 20.893C8.68219 20.893 8.55247 20.7632 8.55247 20.6173C8.55247 20.4649 8.67571 20.3416 8.82814 20.3416C8.98382 20.3416 9.10382 20.4616 9.10382 20.6173C9.10382 20.7697 8.98057 20.893 8.82814 20.893Z" fill="#383874"/>
<path d="M11.3579 19.8551C10.9395 19.8551 10.5989 20.1957 10.5989 20.6141C10.5989 21.0259 10.946 21.373 11.3579 21.373C11.7762 21.373 12.1168 21.0324 12.1168 20.6141C12.1168 20.1892 11.7827 19.8551 11.3579 19.8551ZM11.3579 20.8897C11.2119 20.8897 11.0854 20.7632 11.0854 20.6173C11.0854 20.4649 11.2087 20.3449 11.3579 20.3449C11.5135 20.3449 11.6303 20.4616 11.6303 20.6173C11.6303 20.7665 11.507 20.8897 11.3579 20.8897Z" fill="#383874"/>
<path d="M14.6465 20.6173C14.6465 20.1892 14.3125 19.8551 13.8844 19.8551C13.4627 19.8551 13.1222 20.1957 13.1222 20.6173C13.1222 21.0292 13.4725 21.3795 13.8844 21.3795C14.306 21.3795 14.6465 21.0357 14.6465 20.6173ZM13.8844 20.893C13.7384 20.893 13.6087 20.7632 13.6087 20.6173C13.6087 20.4649 13.7319 20.3416 13.8844 20.3416C14.04 20.3416 14.16 20.4616 14.16 20.6173C14.16 20.7697 14.0368 20.893 13.8844 20.893Z" fill="#383874"/>
<path d="M10.8552 8.08541C10.9168 8.08541 10.9784 8.0627 11.0271 8.01405L14.5038 4.56C14.5979 4.46595 14.6011 4.31027 14.5038 4.21622C14.4098 4.12216 14.2541 4.12216 14.16 4.21622L10.6833 7.67027C10.5892 7.76432 10.586 7.92 10.6833 8.01405C10.7287 8.0627 10.7935 8.08541 10.8552 8.08541Z" fill="#383874"/>
<path d="M22.1352 21.8919H18.3373C17.9611 21.6097 17.7568 21.3178 17.7503 21.0486C17.7438 20.7892 17.9092 20.5881 17.9968 20.4973C18.6162 20.4746 19.1708 20.3611 19.5827 20.1568C19.586 20.16 19.5892 20.1632 19.5925 20.1632C20.0335 20.4681 20.5881 20.6238 21.2303 20.6238C21.5319 20.6238 21.8498 20.5881 22.187 20.52C22.32 20.494 22.4043 20.3643 22.3752 20.2313C22.346 20.0984 22.2195 20.014 22.0865 20.0432C21.1589 20.2346 20.413 20.1405 19.8714 19.7611C19.4303 19.453 19.2325 19.0378 19.1416 18.7232C19.8681 18.6422 20.4519 18.2238 20.7633 17.8508C21.0973 18.0876 21.5287 18.2724 22.0995 18.3568C22.1125 18.36 22.1222 18.36 22.1352 18.36C22.2552 18.36 22.3589 18.2724 22.3752 18.1524C22.3946 18.0195 22.3038 17.8962 22.1708 17.8768C21.0195 17.7081 20.5395 17.0692 20.28 16.4562C20.306 16.453 20.3287 16.4432 20.3546 16.44C20.6206 16.4108 20.8962 16.3589 21.1298 16.1578C21.2173 16.0832 21.2854 16.0022 21.3503 15.9276C21.4087 15.8595 21.4638 15.7946 21.5254 15.7459L21.6195 15.6681C21.8335 15.4832 21.8562 15.4638 22.1676 15.4281C22.3006 15.4119 22.3979 15.2919 22.3816 15.1589C22.3654 15.0259 22.2487 14.9319 22.1125 14.9449C21.6746 14.9968 21.5643 15.0746 21.3049 15.2984L21.2141 15.3762C21.1233 15.4508 21.0519 15.5351 20.9838 15.613C20.9319 15.6746 20.8768 15.7362 20.8152 15.7913C20.6887 15.8984 20.5265 15.934 20.306 15.9568C20.1568 15.973 20.0141 16.0086 19.8779 16.0573H19.8746C19.8714 16.0573 19.8714 16.0605 19.8714 16.0605C19.5633 16.1773 19.3038 16.3784 19.1319 16.6443C19.0216 16.8195 18.8498 16.9427 18.7784 16.9524C18.7135 16.9622 18.6487 16.9719 18.5806 16.9784C18.3535 17.0043 18.0973 17.0335 17.8865 17.1827C17.7535 17.2768 17.6692 17.4 17.5979 17.5038C17.5427 17.5849 17.4941 17.6562 17.4325 17.7016C17.3027 17.7957 17.0887 17.8022 16.8616 17.8119C16.6119 17.8216 16.3298 17.8313 16.0898 17.9643C15.84 18.1038 15.3827 18.6713 15.1525 19.0832C14.893 18.934 14.5979 18.8497 14.28 18.8497H13.7092V18.1297C14.0335 18.0259 14.2703 17.7243 14.2703 17.3676V15.5059C14.2703 15.0195 14.1892 14.5362 14.0238 14.0757L13.4173 12.3665C13.3038 12.0454 12.9989 11.8313 12.6584 11.8313H10.9298C10.8162 11.8313 10.7092 11.8541 10.6119 11.8962V10.1935L15.9308 4.47892L20.0108 8.63027C20.1795 8.80216 20.4033 8.88973 20.627 8.88973C20.6854 8.88973 20.7406 8.88324 20.7989 8.87027C20.7698 9.19459 20.6595 9.47351 20.4649 9.71351C20.4584 9.71027 20.4552 9.70702 20.4519 9.70378C20.3222 9.6454 20.1762 9.64865 20.0465 9.71027C19.9557 9.75243 19.8714 9.7881 19.7838 9.82702C18.986 9.24324 18.3243 8.99675 17.7698 9.08108C17.1568 9.17189 16.826 9.62918 16.5827 9.96648C16.5146 10.0638 16.4173 10.1935 16.3557 10.2454C16.2098 10.2 16.0703 10.1449 15.9341 10.0768C15.7946 10.0086 15.6292 10.0411 15.5254 10.1513C15.4184 10.2649 15.3989 10.4335 15.4735 10.5697C16.5665 12.5384 17.9741 13.5632 19.5762 13.5632C19.7579 13.5632 19.946 13.5503 20.1308 13.5243C20.3643 13.4919 20.5622 13.3589 20.7016 13.1449C20.786 13.0184 20.8411 12.8595 20.8865 12.6876C22.2746 11.5913 22.3881 10.4984 22.3298 9.94054C22.2616 9.31135 21.9146 8.75027 21.4054 8.40973C21.5546 8.11459 21.5222 7.7481 21.3016 7.47567L16.8422 2.05297C16.6346 1.80324 16.3427 1.65081 16.0184 1.62486C15.6941 1.60216 15.3827 1.70594 15.1395 1.92324C15.1233 1.93621 8.07894 8.49081 8.07894 8.49081C7.76759 8.77946 7.5957 9.17189 7.5957 9.59351V14.1795H6.13948V13.8616C6.13948 13.4173 5.77948 13.0573 5.33516 13.0573H4.54381V11.9286C4.54381 11.5622 4.4011 11.2216 4.14489 10.9622L3.47678 10.2941C3.38272 10.2 3.22705 10.2 3.13299 10.2941C3.03894 10.3881 3.03894 10.5438 3.13299 10.6378L3.8011 11.3059C3.96651 11.4713 4.05732 11.6919 4.05732 11.9286V13.0573H3.26597C2.82164 13.0573 2.46164 13.4173 2.46164 13.8616V14.1795H2.42597C1.98164 14.1827 1.62164 14.5427 1.62164 14.987V17.3708C1.62164 17.8151 1.98164 18.1751 2.42597 18.1751H3.13948V18.8724C2.28326 18.9924 1.62164 19.7286 1.62164 20.6173C1.62164 21.5903 2.41299 22.3784 3.38272 22.3784H14.2735H22.1352C22.2681 22.3784 22.3784 22.2681 22.3784 22.1351C22.3784 22.0022 22.2681 21.8919 22.1352 21.8919ZM17.9968 17.7859C18.0519 17.7016 18.1006 17.6303 18.1654 17.5881C18.2725 17.5103 18.4476 17.4908 18.6325 17.4713C18.7071 17.4616 18.7816 17.4551 18.853 17.4422C19.1189 17.3968 19.3881 17.147 19.5373 16.9168C19.6087 16.8065 19.7092 16.7157 19.826 16.6378C19.9525 16.9362 20.1276 17.2573 20.3968 17.5427C20.0465 17.9708 19.08 18.6843 17.8768 17.9546C17.9222 17.893 17.9611 17.8378 17.9968 17.7859ZM16.3233 18.3957C16.4627 18.3178 16.6638 18.3113 16.8779 18.3049C17.0627 18.2984 17.267 18.2854 17.4552 18.227C17.4746 18.2595 17.4973 18.2886 17.5298 18.3113C17.9157 18.5643 18.2887 18.6908 18.6422 18.7297C18.733 19.1319 18.9211 19.5016 19.187 19.8032C18.3698 20.1146 17.0238 20.0854 15.7881 19.7189C15.7168 19.5989 15.6325 19.4886 15.5352 19.3881C15.6811 19.1027 16.1352 18.4995 16.3233 18.3957ZM12.9568 12.5319L13.5633 14.2411C13.7092 14.6497 13.7806 15.0746 13.7806 15.5092V15.6097H11.9092C11.8379 15.6097 11.7795 15.5513 11.7795 15.48V12.3211H12.6584C12.7914 12.3211 12.9114 12.4054 12.9568 12.5319ZM10.9298 12.3211H11.2898V15.48C11.2898 15.8205 11.5654 16.0962 11.906 16.0962H13.7773V17.3708C13.7773 17.5459 13.6346 17.6886 13.4595 17.6886H10.6087V16.6281V16.5859V12.6389C10.6119 12.4638 10.7546 12.3211 10.9298 12.3211ZM10.1254 15.8919C10.0281 15.8497 9.9211 15.827 9.80759 15.827H9.39894C9.18813 15.827 9.00327 15.7005 8.92867 15.5059L8.65948 14.8151C8.5557 14.5459 8.34489 14.3449 8.08543 14.2476V10.6995C8.36759 10.9622 8.72435 11.1081 9.11029 11.1081H9.13624C9.50921 11.1016 9.85299 10.9557 10.1254 10.7059V12.6422V15.8919ZM20.3741 8.29946C20.3708 8.29621 20.3708 8.29621 20.3708 8.29297C20.2249 8.14702 20.2216 7.91027 20.3676 7.76432C20.5135 7.61837 20.7503 7.62162 20.8962 7.76756C20.8995 7.77081 20.906 7.77405 20.9125 7.77729L20.9189 7.78378C21.0487 7.93946 21.0292 8.16973 20.88 8.3027C20.7341 8.43243 20.5168 8.42919 20.3741 8.29946ZM16.9752 10.2486C17.186 9.95351 17.4292 9.6227 17.8379 9.56108C18.2011 9.50594 18.6746 9.67135 19.2454 10.0476C18.386 10.3589 17.6011 10.4692 16.8908 10.3622C16.9168 10.3265 16.946 10.2876 16.9752 10.2486ZM20.0595 13.0411C18.5157 13.2616 17.1795 12.4638 16.0865 10.667C16.1481 10.6897 16.3135 10.7351 16.3362 10.7384C17.3481 11.0205 18.4962 10.8973 19.7579 10.3492C19.826 10.3492 20.1341 10.1805 20.2346 10.1286C20.5557 11.3092 20.5784 12.4411 20.293 12.8757C20.2087 13.0054 20.1179 13.0313 20.0595 13.0411ZM21.84 9.99243C21.9114 10.654 21.6033 11.3384 20.9708 11.9611C20.9806 11.3643 20.8768 10.6995 20.7341 10.1351C21.0487 9.79783 21.2368 9.39892 21.2822 8.93189C21.5903 9.19135 21.7946 9.57081 21.84 9.99243ZM15.9827 2.11135C16.1741 2.12432 16.346 2.21513 16.466 2.36432L20.4325 7.19351C20.2833 7.22919 20.1373 7.30054 20.0206 7.41729C19.9265 7.51135 19.8616 7.62486 19.8195 7.74162L15.4346 3.28865C15.3016 3.15243 15.2303 2.97081 15.2368 2.7827C15.2433 2.59135 15.3243 2.41621 15.467 2.28648C15.5968 2.16973 15.7589 2.1081 15.9276 2.1081C15.947 2.1081 15.9633 2.1081 15.9827 2.11135ZM8.40975 8.84756L14.7633 2.94162C14.7925 3.20108 14.9027 3.43783 15.0908 3.62919L15.5903 4.13513L10.2 9.92756C10.1968 9.93081 10.1968 9.93081 10.1935 9.93405L9.85624 10.2941C9.66489 10.4984 9.40543 10.6151 9.12651 10.6184C8.83137 10.6216 8.58164 10.5146 8.38381 10.3168C8.18921 10.1222 8.08543 9.86594 8.08543 9.59351C8.08543 9.31135 8.19894 9.0454 8.40975 8.84756ZM2.95137 13.8649C2.95137 13.6897 3.09408 13.547 3.26921 13.547H5.33516C5.51029 13.547 5.65299 13.6897 5.65299 13.8649V14.1827H2.95137V13.8649ZM2.10813 17.3708V14.987C2.10813 14.8119 2.25083 14.6692 2.42597 14.6692H7.73191C7.93948 14.6692 8.12759 14.7989 8.20218 14.9903L8.47137 15.6811C8.62056 16.0638 8.98381 16.3135 9.3957 16.3135H9.80435C9.97948 16.3135 10.1222 16.4562 10.1222 16.6313V17.6919H2.42597C2.25083 17.6919 2.10813 17.5492 2.10813 17.3708ZM13.2195 18.1784V18.8562H3.62597V18.1784H13.2195ZM2.10813 20.6173C2.10813 19.9135 2.67894 19.3427 3.38272 19.3427H14.2735C14.9773 19.3427 15.5481 19.9135 15.5481 20.6173C15.5481 21.3211 14.9773 21.8919 14.2735 21.8919H3.38272C2.67894 21.8919 2.10813 21.3211 2.10813 20.6173ZM16.0379 20.6173C16.0379 20.5005 16.0249 20.387 16.0054 20.28C16.4757 20.3968 16.9492 20.4649 17.4065 20.4908C17.3254 20.6432 17.2606 20.8378 17.267 21.0584C17.2735 21.347 17.3935 21.6259 17.6238 21.8951H15.4898C15.8238 21.5708 16.0379 21.1168 16.0379 20.6173Z" fill="#383874"/>
</svg>
