<svg width="24" height="24" viewBox="0 0 24 24" fill="none" xmlns="http://www.w3.org/2000/svg">
<path d="M3.60002 11.2H10C10.6617 11.2 11.2 10.6617 11.2 9.99999V3.59999C11.2 2.93828 10.6617 2.39999 10 2.39999H3.60002C2.93831 2.39999 2.40002 2.93828 2.40002 3.59999V9.99999C2.40002 10.6617 2.93831 11.2 3.60002 11.2ZM3.20002 3.59999C3.20002 3.37949 3.37952 3.19999 3.60002 3.19999H10C10.2205 3.19999 10.4 3.37949 10.4 3.59999V9.99999C10.4 10.2205 10.2205 10.4 10 10.4H3.60002C3.37952 10.4 3.20002 10.2205 3.20002 9.99999V3.59999Z" fill="#383874"/>
<path d="M20.4 2.39999H14C13.3383 2.39999 12.8 2.93828 12.8 3.59999V9.99999C12.8 10.6617 13.3383 11.2 14 11.2H20.4C21.0617 11.2 21.6 10.6617 21.6 9.99999V3.59999C21.6 2.93828 21.0617 2.39999 20.4 2.39999ZM20.8 9.99999C20.8 10.2205 20.6205 10.4 20.4 10.4H14C13.7795 10.4 13.6 10.2205 13.6 9.99999V3.59999C13.6 3.37949 13.7795 3.19999 14 3.19999H20.4C20.6205 3.19999 20.8 3.37949 20.8 3.59999V9.99999Z" fill="#383874"/>
<path d="M3.60002 21.6H10C10.6617 21.6 11.2 21.0617 11.2 20.4V14C11.2 13.3383 10.6617 12.8 10 12.8H3.60002C2.93831 12.8 2.40002 13.3383 2.40002 14V20.4C2.40002 21.0617 2.93831 21.6 3.60002 21.6ZM3.20002 14C3.20002 13.7795 3.37952 13.6 3.60002 13.6H10C10.2205 13.6 10.4 13.7795 10.4 14V20.4C10.4 20.6205 10.2205 20.8 10 20.8H3.60002C3.37952 20.8 3.20002 20.6205 3.20002 20.4V14Z" fill="#383874"/>
<path d="M20.4 12.8H14C13.3383 12.8 12.8 13.3383 12.8 14V20.4C12.8 21.0617 13.3383 21.6 14 21.6H20.4C21.0617 21.6 21.6 21.0617 21.6 20.4V14C21.6 13.3383 21.0617 12.8 20.4 12.8ZM20.8 20.4C20.8 20.6205 20.6205 20.8 20.4 20.8H14C13.7795 20.8 13.6 20.6205 13.6 20.4V14C13.6 13.7795 13.7795 13.6 14 13.6H20.4C20.6205 13.6 20.8 13.7795 20.8 14V20.4Z" fill="#383874"/>
</svg>
