<svg width="24" height="24" viewBox="0 0 24 24" fill="none" xmlns="http://www.w3.org/2000/svg">
<g clip-path="url(#clip0_44_1076)">
<path d="M2.98642 12.7592C2.7516 10.1165 3.67627 7.52317 5.5233 5.64422C6.9028 4.24124 8.65965 3.34465 10.6039 3.05152C12.483 2.76819 14.4402 3.09014 16.1147 3.95824C16.2284 4.0172 16.2413 4.13213 16.1516 4.23121L15.3416 5.04259C14.8036 5.5817 15.1744 6.53734 15.9597 6.53706H15.9616L20.1861 6.5283C20.6698 6.52717 21.063 6.13304 21.0627 5.64961L21.0584 1.43158C21.0656 0.657227 20.0871 0.278465 19.5615 0.815509L18.5638 1.81489C18.5062 1.87258 18.4168 1.88421 18.351 1.84263C15.8395 0.256389 12.8325 -0.333385 9.8841 0.182099C9.69282 0.215517 9.56487 0.397657 9.59833 0.588889C9.63175 0.780169 9.81389 0.908126 10.0051 0.87466C12.7815 0.389455 15.612 0.944263 17.9755 2.437C18.3168 2.65275 18.7736 2.60006 19.0615 2.31162L20.0592 1.31224C20.1917 1.19329 20.3474 1.26926 20.3553 1.432L20.3597 5.65022C20.3598 5.74654 20.2811 5.825 20.1846 5.82524L15.9602 5.834H15.9597C15.7912 5.82608 15.722 5.66775 15.8392 5.53933L16.6491 4.72799C17.0608 4.32083 16.9498 3.59921 16.4383 3.33406C14.633 2.39819 12.5238 2.05116 10.4991 2.35634C8.40304 2.67243 6.50909 3.63891 5.02197 5.15138C3.03025 7.17755 2.03303 9.9732 2.28613 12.8215C2.30694 13.0556 2.22576 13.2831 2.06335 13.4457C1.84437 13.665 1.54018 13.733 1.24958 13.628C0.964047 13.5247 0.777267 13.2831 0.749942 12.9815C0.447954 9.65054 1.61846 6.38769 3.96129 4.02943C5.2268 2.75525 6.72928 1.82665 8.42689 1.26931C8.61138 1.20875 8.71182 1.01016 8.65126 0.82568C8.59071 0.641244 8.39221 0.5408 8.20763 0.60131C6.40349 1.19362 4.80693 2.18029 3.46249 3.53392C0.972859 6.03995 -0.271043 9.50656 0.0496467 13.0449C0.101486 13.6167 0.469655 14.0935 1.01036 14.2891C1.1775 14.3495 1.34918 14.379 1.51876 14.379C1.90277 14.379 2.27601 14.2277 2.56084 13.9424C2.87056 13.6322 3.0257 13.201 2.98642 12.7592ZM11.44 19.2153C11.4898 19.2397 11.5426 19.2513 11.5946 19.2513C11.7245 19.2513 11.8494 19.1791 11.9105 19.0546C12.3541 18.1505 12.8311 16.9014 13.0633 15.3947C13.948 14.828 15.3522 13.6695 15.6814 11.8774C15.9262 10.545 15.5367 9.09081 14.5849 7.78246C13.6101 6.44271 12.1126 5.37786 10.3682 4.78405C10.1613 4.71356 9.93791 4.7549 9.77063 4.89453C9.60344 5.03401 9.52282 5.24615 9.55498 5.46204C9.69179 6.3799 9.48008 7.31282 9.08201 8.07742C8.97392 8.28501 8.86223 8.49959 8.75129 8.76825C8.3758 9.67777 8.05441 11.1536 8.38419 12.3193C8.66884 13.3253 9.48027 14.1895 10.7307 14.8183C11.3621 15.1359 11.9748 15.3278 12.3458 15.4272C12.1193 16.7876 11.6846 17.9188 11.2792 18.7449C11.1938 18.9191 11.2657 19.1298 11.44 19.2153ZM9.06073 12.1278C8.87132 11.4584 8.90315 10.2429 9.40119 9.03649C9.50019 8.79661 9.60466 8.59604 9.70562 8.40205C10.186 7.4793 10.4078 6.61946 10.2688 5.49391C11.8225 6.04886 13.1497 7.00483 14.0164 8.196C14.8538 9.34701 15.1996 10.6093 14.9899 11.7503C14.8786 12.3562 14.4917 13.4522 13.1707 14.4629C13.2457 13.5003 13.1875 12.4143 13.0248 11.4327C13.2056 11.2657 13.3617 11.0765 13.4897 10.8676C13.8151 10.3368 13.8852 9.80503 13.8866 9.45242C13.8874 9.25828 13.7306 9.10023 13.5365 9.09948H13.535C13.3416 9.09948 13.1843 9.25594 13.1835 9.44961C13.1824 9.72835 13.1037 10.1887 12.8434 10.5731C12.6153 9.65687 12.2815 8.76567 11.843 7.90892C11.7545 7.73606 11.5427 7.66772 11.37 7.75617C11.1971 7.84461 11.1288 8.05642 11.2172 8.22923C11.785 9.33862 12.1681 10.5086 12.3602 11.7171C12.299 11.6605 12.2371 11.6046 12.1739 11.5503C11.7232 11.1632 11.222 10.8358 10.6843 10.5773C10.5095 10.4932 10.2993 10.5669 10.2152 10.7418C10.1311 10.9168 10.2047 11.1268 10.3797 11.211C10.8621 11.4428 11.3116 11.7365 11.7159 12.0836C11.9946 12.3231 12.2527 12.5894 12.4846 12.8761C12.5215 13.5245 12.5019 14.1423 12.4411 14.7243C11.566 14.4787 9.5172 13.7411 9.06073 12.1278ZM23.6287 9.06358C23.4973 8.54781 23.1116 8.15569 22.5969 8.01461C22.077 7.87217 21.5388 8.01504 21.1574 8.39699C20.7916 8.76328 20.6435 9.30192 20.7708 9.8025C21.2551 11.708 21.0977 13.7584 20.3276 15.5759C20.2519 15.7546 20.3353 15.961 20.5141 16.0367C20.6928 16.1125 20.8991 16.029 20.9749 15.8502C21.8046 13.8922 21.9741 11.6829 21.4521 9.62931C21.3856 9.36754 21.4633 9.08566 21.6549 8.89372C21.8553 8.69302 22.1383 8.61779 22.411 8.69269C22.6787 8.76604 22.8792 8.96956 22.9473 9.23714C23.4834 11.3413 23.4015 13.5484 22.7106 15.6198C22.0028 17.742 20.694 19.5856 18.9256 20.9512C16.8857 22.526 14.3428 23.3575 11.7674 23.2931C9.22805 23.2295 6.76486 22.3055 4.83125 20.6914C4.52106 20.4326 4.06154 20.4249 3.73865 20.6731L2.619 21.5333C2.47863 21.6309 2.32672 21.5483 2.3413 21.3756L2.89207 17.1911C2.90473 17.0953 2.99308 17.0275 3.08888 17.0401L7.27491 17.5859C7.448 17.6174 7.48489 17.7839 7.35604 17.8942L6.44656 18.5928C5.98488 18.9409 5.99332 19.6675 6.47229 20.0025C8.13779 21.1678 10.1804 21.7885 12.2282 21.752C14.3466 21.7137 16.3501 21.0035 18.0221 19.6984C18.8661 19.0397 19.5891 18.2532 20.171 17.3606C20.277 17.198 20.2311 16.9802 20.0684 16.8742C19.9057 16.768 19.688 16.814 19.582 16.9767C19.0426 17.8041 18.3722 18.5333 17.5895 19.1442C16.0385 20.3548 14.1802 21.0135 12.2154 21.0492C10.3163 21.0821 8.42 20.5073 6.87505 19.4263C6.77208 19.3543 6.77184 19.2369 6.87477 19.1504L7.78439 18.4517C8.39779 17.9887 8.10784 16.9782 7.36588 16.8887L3.17977 16.3429C2.70042 16.2805 2.25848 16.6197 2.19511 17.0992L1.64428 21.2839C1.59807 21.636 1.76666 21.9781 2.0739 22.1555C2.38212 22.3333 2.76407 22.3083 3.04717 22.091L4.16705 21.2307C4.23136 21.1812 4.32135 21.1816 4.38087 21.2313C6.43564 22.9466 9.05262 23.9284 11.7498 23.996C14.4817 24.0644 17.1889 23.1807 19.3553 21.5078C21.2346 20.0564 22.6255 18.0973 23.3777 15.8423C24.1113 13.6427 24.198 11.2987 23.6287 9.06358Z" fill="#383874"/>
</g>
<defs>
<clipPath id="clip0_44_1076">
<rect width="24" height="24" fill="white"/>
</clipPath>
</defs>
</svg>
