<svg width="24" height="24" viewBox="0 0 24 24" fill="none" xmlns="http://www.w3.org/2000/svg">
<g clip-path="url(#clip0_44_1073)">
<path d="M23.2108 19.1776H21.9851V13.2079C21.9851 12.8337 21.6806 12.5292 21.3062 12.5292H16.1629C15.7885 12.5292 15.4839 12.8337 15.4839 13.2079V19.1776H14.3134V0.678955C14.3135 0.304504 14.0089 0 13.6346 0H8.49115C8.11688 0 7.81219 0.304504 7.81219 0.678955V19.1776H6.64178V4.64008C6.64178 4.44617 6.4845 4.28888 6.29059 4.28888C6.09668 4.28888 5.93958 4.44617 5.93958 4.64008V23.2978H0.842834V21.2377H3.20398C3.50079 21.2377 3.74231 20.9962 3.74231 20.6993V19.8565C3.74231 19.5595 3.50079 19.318 3.20398 19.318H0.842834V18.7562H3.20398C3.50079 18.7562 3.74231 18.5147 3.74231 18.2179V17.3751C3.74231 17.0782 3.50079 16.8367 3.20398 16.8367H0.842834V16.2748H3.20398C3.50079 16.2748 3.74231 16.0333 3.74231 15.7365V14.8936C3.74231 14.5968 3.50079 14.3553 3.20398 14.3553H0.842834V13.7933H3.20398C3.50079 13.7933 3.74231 13.5518 3.74231 13.255V12.4122C3.74231 12.1154 3.50079 11.8738 3.20398 11.8738H0.842834V11.3119H3.20398C3.50079 11.3119 3.74231 11.0704 3.74231 10.7736V9.93073C3.74231 9.63391 3.50079 9.3924 3.20398 9.3924H0.842834V8.83063H3.20398C3.50079 8.83063 3.74231 8.58893 3.74231 8.29211V7.44946C3.74231 7.15247 3.50079 6.91095 3.20398 6.91095H0.842834V6.34918H3.20398C3.50079 6.34918 3.74231 6.10767 3.74231 5.81067V4.96802C3.74231 4.67102 3.50079 4.4295 3.20398 4.4295H0.842834V3.86755H3.20398C3.50079 3.86755 3.74231 3.62604 3.74231 3.32904V2.48621C3.74231 2.18939 3.50079 1.94788 3.20398 1.94788H0.842834V0.702209H5.93958V2.90771C5.93958 3.10162 6.09668 3.25891 6.29059 3.25891C6.4845 3.25891 6.64178 3.10162 6.64178 2.90771V0.678955C6.64178 0.304504 6.33728 0 5.96301 0H0.81958C0.445129 0 0.140625 0.304504 0.140625 0.678955V23.6488C0.140625 23.8427 0.297913 24 0.491821 24H23.2108C23.5851 24 23.8896 23.6955 23.8896 23.321V19.8565C23.8896 19.4821 23.5851 19.1776 23.2108 19.1776ZM3.0401 20.0204V20.5353H0.842834V20.0204H3.0401ZM3.0401 17.5389V18.0538H0.842834V17.5389H3.0401ZM3.0401 15.0575V15.5724H0.842834V15.0575H3.0401ZM3.0401 12.576V13.0909H0.842834V12.576H3.0401ZM3.0401 10.0946V10.6095H0.842834V10.0946H3.0401ZM3.0401 7.61298V8.12805H0.842834V7.61298H3.0401ZM3.0401 5.13171V5.64661H0.842834V5.13171H3.0401ZM3.0401 2.65009V3.16516H0.842834V2.65009H3.0401ZM16.1862 14.8936H18.3834V15.4085H16.1862V14.8936ZM16.1862 17.3751H18.3834V17.89H16.1862V17.3751ZM8.51459 2.65009H10.7117V3.16516H8.51459V2.65009ZM8.51459 5.13171H10.7117V5.64661H8.51459V5.13171ZM8.51459 7.61298H10.7117V8.12805H8.51459V7.61298ZM8.51459 10.0946H10.7117V10.6095H8.51459V10.0946ZM8.51459 12.576H10.7117V13.0909H8.51459V12.576ZM8.51459 15.0575H10.7117V15.5724H8.51459V15.0575ZM8.51459 17.5389H10.7117V18.0538H8.51459V17.5389ZM23.1874 23.2978H6.64178V19.8799H8.79382C8.98773 19.8799 9.14502 19.7227 9.14502 19.5287C9.14502 19.3348 8.98773 19.1776 8.79382 19.1776H8.51459V18.7562H10.8755C11.1725 18.7562 11.4141 18.5147 11.4141 18.2179V17.3751C11.4141 17.0782 11.1725 16.8367 10.8755 16.8367H8.51459V16.2748H10.8755C11.1725 16.2748 11.4141 16.0333 11.4141 15.7365V14.8936C11.4141 14.5968 11.1725 14.3553 10.8755 14.3553H8.51459V13.7933H10.8755C11.1725 13.7933 11.4141 13.5518 11.4141 13.255V12.4122C11.4141 12.1154 11.1725 11.8738 10.8755 11.8738H8.51459V11.3119H10.8755C11.1725 11.3119 11.4141 11.0704 11.4141 10.7736V9.93073C11.4141 9.63391 11.1725 9.3924 10.8755 9.3924H8.51459V8.83063H10.8755C11.1725 8.83063 11.4141 8.58893 11.4141 8.29211V7.44946C11.4141 7.15247 11.1725 6.91095 10.8755 6.91095H8.51459V6.34918H10.8755C11.1725 6.34918 11.4141 6.10767 11.4141 5.81067V4.96802C11.4141 4.67102 11.1725 4.4295 10.8755 4.4295H8.51459V3.86755H10.8755C11.1725 3.86755 11.4141 3.62604 11.4141 3.32904V2.48621C11.4141 2.18939 11.1725 1.94788 10.8755 1.94788H8.51459V0.702209H13.6111V19.1776H10.4324C10.2385 19.1776 10.0814 19.3348 10.0814 19.5287C10.0814 19.7227 10.2385 19.8798 10.4324 19.8798H19.2614C19.4553 19.8798 19.6126 19.7227 19.6126 19.5287C19.6126 19.3348 19.4553 19.1776 19.2614 19.1776H16.1863V18.5923H18.5473C18.8441 18.5923 19.0856 18.3508 19.0856 18.0538V17.2112C19.0856 16.9142 18.8441 16.6727 18.5473 16.6727H16.1863V16.1109H18.5473C18.8441 16.1109 19.0856 15.8694 19.0856 15.5726V14.7297C19.0856 14.4327 18.8441 14.1912 18.5473 14.1912H16.1863V13.2316H21.2829V19.1776H20.9136C20.7197 19.1776 20.5624 19.3348 20.5624 19.5287C20.5624 19.7227 20.7197 19.8799 20.9136 19.8799H23.1874V23.2978Z" fill="#383874"/>
</g>
<defs>
<clipPath id="clip0_44_1073">
<rect width="24" height="24" fill="white"/>
</clipPath>
</defs>
</svg>
