<svg width="24" height="24" viewBox="0 0 24 24" fill="none" xmlns="http://www.w3.org/2000/svg">
<path d="M20.8557 15.7756C20.9523 15.2451 21.0017 14.7053 21.0017 14.1641C21.0017 9.3305 17.1624 5.37739 12.3732 5.192V3.58054H12.8673C14.1815 3.58054 15.2507 2.51139 15.2507 1.19722V0.539075C15.2507 0.241834 15.0088 0 14.7116 0H14.0534C12.9423 0 12.0064 0.764409 11.7438 1.79493C11.3078 1.32097 10.683 1.02331 9.98984 1.02331H9.3317C9.03446 1.02331 8.79263 1.26514 8.79263 1.56238V2.22052C8.79263 3.53469 9.86183 4.60384 11.176 4.60384H11.6701V5.19209C6.17872 5.39497 2.20776 10.3962 3.18756 15.7756C2.5342 15.8027 2 16.3645 2 17.0207C2 17.6022 2.41298 18.114 2.9821 18.2376L3.65637 18.3837C3.09531 18.8209 3.01023 19.6667 3.52047 20.177C3.65271 20.3092 3.8089 20.4029 3.97517 20.4586C3.88704 20.6252 3.84017 20.8118 3.84017 21.0056C3.84017 21.3187 3.96205 21.613 4.18335 21.8343C4.40212 22.053 4.69214 22.1745 5.0011 22.1773C5.00401 22.4735 5.11796 22.7689 5.34349 22.9944C5.7117 23.3627 6.26985 23.4381 6.71855 23.2025C6.87221 23.6696 7.34435 24 7.82947 24C8.12952 24 8.42971 23.8857 8.65814 23.6573L9.52376 22.7917C10.3319 23.0254 11.171 23.1441 12.0216 23.1441C12.8723 23.1441 13.7114 23.0254 14.5195 22.7917L15.3851 23.6573C15.8421 24.1142 16.5855 24.1142 17.0424 23.6573C17.1724 23.5273 17.2679 23.3719 17.3247 23.2025C17.7724 23.4377 18.332 23.3622 18.6998 22.9943C18.9253 22.7688 19.0392 22.4734 19.0421 22.1772C19.3511 22.1744 19.6412 22.053 19.8599 21.8342C20.2181 21.476 20.3036 20.9024 20.0684 20.459C20.2377 20.4022 20.3928 20.3068 20.5228 20.1769C21.0281 19.6714 20.9382 18.8107 20.3869 18.3836L21.0613 18.2375C21.6303 18.1139 22.0432 17.6021 22.0432 17.0206C22.0433 16.3588 21.5029 15.8023 20.8557 15.7756ZM12.3732 2.38332C12.3732 1.45686 13.1269 0.703142 14.0534 0.703142H14.5475V1.19722C14.5475 2.09546 13.839 2.83127 12.9515 2.87529L13.4612 2.42396C13.6066 2.29524 13.6201 2.07305 13.4914 1.92769C13.3627 1.78228 13.1405 1.76878 12.9951 1.8975L12.3732 2.4481V2.38332ZM11.0596 2.79302C10.9222 2.65572 10.6996 2.65572 10.5623 2.79302C10.425 2.93032 10.425 3.15293 10.5623 3.29019L11.1728 3.90065C10.2478 3.89887 9.49582 3.14595 9.49582 2.22057V1.72645H9.98989C10.9153 1.72645 11.6683 2.47843 11.67 3.40344L11.0596 2.79302ZM3.13121 17.5505C2.88319 17.4966 2.70314 17.2738 2.70314 17.0207C2.70314 16.6849 3.01979 16.4225 3.34802 16.4879C3.45728 16.8971 3.59524 17.2979 3.7609 17.6869L3.13121 17.5505ZM4.01764 19.6797C3.83731 19.4994 3.83647 19.1962 4.01769 19.0168C4.01769 19.0168 5.40588 17.6286 5.40981 17.6247C5.59005 17.4444 5.89212 17.4441 6.07274 17.6247C6.25551 17.8074 6.25551 18.1048 6.07278 18.2875L4.68056 19.6798C4.50093 19.8611 4.1975 19.8596 4.01764 19.6797ZM4.68061 21.3371C4.49784 21.1543 4.49784 20.8569 4.68061 20.6741L7.06717 18.2876C7.24633 18.1063 7.55032 18.1061 7.73004 18.2876C7.91061 18.4664 7.91136 18.7712 7.73004 18.9505L5.34349 21.3371C5.1639 21.5184 4.86043 21.5169 4.68061 21.3371ZM6.50367 22.4972C6.3209 22.6799 6.02352 22.68 5.8407 22.4972C5.65793 22.3144 5.65793 22.017 5.8407 21.8342L8.22716 19.4477C8.40993 19.265 8.70731 19.265 8.89013 19.4477C9.0729 19.6305 9.0729 19.9279 8.89013 20.1106L6.50367 22.4972ZM9.5531 21.768L8.16093 23.1602C7.9782 23.3429 7.68087 23.3429 7.498 23.1602C7.31772 22.9799 7.31683 22.6768 7.49791 22.4974L8.89018 21.1051C9.06934 20.9238 9.37249 20.9246 9.5531 21.1051C9.73587 21.2878 9.73587 21.5852 9.5531 21.768ZM10.0503 20.6079C9.92023 20.4778 9.76493 20.3824 9.59552 20.3256C9.82831 19.8832 9.75893 19.3222 9.38739 18.9506C9.16187 18.7251 8.86651 18.6111 8.57025 18.6082C8.56744 18.2993 8.44603 18.0092 8.22721 17.7905C8.00586 17.5691 7.71162 17.4472 7.39858 17.4472C7.20475 17.4472 7.01813 17.4941 6.85154 17.5822C6.79585 17.416 6.70214 17.2597 6.56995 17.1275H6.5699C6.34856 16.9062 6.05427 16.7843 5.74123 16.7843C5.42819 16.7843 5.1339 16.9062 4.91255 17.1276L4.4745 17.5657C3.99603 16.5036 3.74468 15.3374 3.74468 14.1642C3.74468 12.4577 4.26402 10.8701 5.15279 9.55119C5.8864 10.06 6.43307 10.7355 6.64008 11.4038C6.77227 11.83 6.74503 12.174 6.70739 12.65C6.66131 13.2329 6.60389 13.9583 6.82463 15.1107C6.93207 15.6722 7.04706 16.0258 7.13523 16.2713C7.20161 16.456 7.40617 16.5475 7.58501 16.4832C7.76773 16.4176 7.86265 16.2162 7.79698 16.0335C7.71743 15.8122 7.61355 15.4922 7.51521 14.9785C7.31228 13.9193 7.36333 13.2745 7.40838 12.7056C7.44888 12.1933 7.4839 11.7509 7.31172 11.1957C7.05728 10.3741 6.43148 9.5841 5.57107 8.9847C6.67214 7.61633 8.19843 6.6039 9.9478 6.15094C10.15 7.00352 10.3162 7.92 10.4556 8.81449C10.6804 10.2568 10.8579 11.396 11.7209 11.674C12.2166 11.8336 12.6409 11.5937 13.0152 11.3821C13.3643 11.1848 13.6939 10.9985 14.0938 11.0761C14.7042 11.1945 15.1035 12.1665 15.6613 12.6249C16.4812 13.2988 17.6796 13.5666 18.8793 13.4673C19.0729 13.4512 19.2167 13.2814 19.2007 13.0879C19.1846 12.8943 19.0136 12.7505 18.8213 12.7666C17.7514 12.855 16.7372 12.5992 16.1077 12.0818C15.4094 11.5077 15.2585 10.5859 14.2278 10.3859C13.5735 10.2589 13.0722 10.5422 12.6693 10.77C12.3404 10.9558 12.1291 11.0668 11.9364 11.0047C11.4859 10.8596 11.3229 9.81365 11.1503 8.70625C11.0091 7.80009 10.8395 6.86796 10.6356 6.00455C11.0864 5.92823 11.5493 5.88787 12.0215 5.88787C16.5855 5.88787 20.2985 9.60069 20.2985 14.1643C20.2985 15.3375 20.0471 16.5037 19.5686 17.5658L19.1306 17.1277C18.9092 16.9064 18.615 16.7845 18.3019 16.7845C17.9889 16.7845 17.6946 16.9064 17.4732 17.1277H17.4732C17.341 17.2599 17.2473 17.4161 17.1916 17.5824C17.0133 17.488 16.8098 17.441 16.6031 17.4484C15.812 16.731 14.1949 15.3361 13.0401 15.8896C12.4328 16.1806 12.3401 16.7833 12.2327 17.4814C12.1553 17.9845 12.0676 18.5549 11.7867 19.1944C11.4732 19.9087 10.9941 20.5246 10.332 21.0639C10.2766 20.897 10.1828 20.7403 10.0503 20.6079ZM13.993 20.6079C13.5521 21.0487 13.5368 21.7562 13.9466 22.2158C13.3194 22.3652 12.6743 22.441 12.0216 22.441C11.369 22.441 10.7239 22.3652 10.0967 22.2158C10.1566 22.1486 10.2072 22.0762 10.2489 22C11.2765 21.3037 11.9914 20.4778 12.4307 19.4768C12.7487 18.7528 12.848 18.1069 12.9278 17.588C13.0248 16.9573 13.0831 16.6486 13.344 16.5235C13.99 16.2141 15.1768 17.1344 15.8715 17.7388C15.6197 17.9601 15.4759 18.2732 15.473 18.6081C15.1767 18.611 14.8814 18.725 14.6558 18.9506C14.2843 19.3221 14.2149 19.8832 14.4477 20.3256C14.2784 20.3824 14.1231 20.4778 13.993 20.6079ZM16.5452 23.1601C16.3625 23.3428 16.0651 23.3428 15.8824 23.1601L14.4902 21.7679C14.3074 21.5852 14.3074 21.2878 14.4902 21.105H14.4901C14.6693 20.9237 14.9733 20.9235 15.1531 21.105L16.5455 22.4974C16.7258 22.6763 16.7255 22.9799 16.5452 23.1601ZM18.2026 22.4972C18.0199 22.68 17.7224 22.6799 17.5397 22.4972C17.1566 22.1142 15.5568 20.5142 15.1532 20.1106C14.9704 19.9279 14.9704 19.6305 15.1532 19.4477C15.3359 19.265 15.6334 19.265 15.8161 19.4477L18.2026 21.8343C18.3854 22.017 18.3854 22.3144 18.2026 22.4972ZM19.3627 21.3371C19.1823 21.5175 18.8788 21.5178 18.6998 21.3371L16.3132 18.9505C16.1321 18.7711 16.1321 18.467 16.3132 18.2876H16.3133C16.4924 18.1063 16.7964 18.1061 16.9762 18.2876C17.7261 19.045 18.6455 19.9571 19.3627 20.6742C19.5455 20.8569 19.5455 21.1543 19.3627 21.3371ZM20.0256 19.6798C19.8429 19.8625 19.5455 19.8625 19.3627 19.6798L17.9705 18.2875C17.7878 18.1048 17.7878 17.8074 17.9705 17.6247H17.9705C18.1497 17.4433 18.4528 17.444 18.6335 17.6247C18.9069 17.8981 19.7358 18.7297 20.0256 19.0168C20.2062 19.1957 20.2059 19.4994 20.0256 19.6798ZM20.9122 17.5504L20.2824 17.6869C20.448 17.2979 20.586 16.897 20.6953 16.4879C21.0201 16.4224 21.3401 16.6849 21.3401 17.0207C21.3401 17.2738 21.1601 17.4965 20.9122 17.5504Z" fill="#383874"/>
</svg>
