<svg width="24" height="24" viewBox="0 0 24 24" fill="none" xmlns="http://www.w3.org/2000/svg">
<path d="M21.5047 19.946H2.52457C2.03108 19.9454 1.55795 19.7492 1.209 19.4002C0.86005 19.0513 0.663784 18.5782 0.663269 18.0847V6.36391C0.663269 6.27789 0.697439 6.1954 0.758261 6.13458C0.819084 6.07375 0.901577 6.03958 0.987593 6.03958C1.57346 6.03428 2.13898 6.25418 2.56738 6.65385C2.88376 6.95829 3.30577 7.12836 3.74484 7.12836C4.18391 7.12836 4.60591 6.95829 4.9223 6.65385C5.35328 6.25873 5.91673 6.03953 6.50143 6.03953C7.08613 6.03953 7.64958 6.25873 8.08057 6.65385C8.39664 6.95826 8.81839 7.12833 9.25722 7.12833C9.69604 7.12833 10.1178 6.95826 10.4339 6.65385C10.865 6.25875 11.4285 6.03958 12.0133 6.03958C12.5981 6.03958 13.1617 6.25875 13.5928 6.65385C13.9093 6.95826 14.3314 7.12829 14.7706 7.12829C15.2097 7.12829 15.6318 6.95826 15.9483 6.65385C16.3795 6.25873 16.9431 6.03954 17.528 6.03954C18.1128 6.03954 18.6764 6.25873 19.1076 6.65385C19.424 6.95829 19.846 7.12836 20.2851 7.12836C20.7241 7.12836 21.1461 6.95829 21.4625 6.65385C21.8907 6.25422 22.456 6.03432 23.0416 6.03958C23.1277 6.03958 23.2102 6.07375 23.271 6.13458C23.3318 6.1954 23.366 6.27789 23.366 6.36391V18.0834C23.3658 18.5771 23.1697 19.0505 22.8207 19.3998C22.4717 19.749 21.9984 19.9454 21.5047 19.946ZM1.31192 6.71353V18.0834C1.31192 18.4051 1.43964 18.7137 1.66702 18.9413C1.89439 19.1689 2.20283 19.297 2.52457 19.2973H21.5047C21.8262 19.297 22.1344 19.1691 22.3618 18.9418C22.5891 18.7144 22.717 18.4062 22.7173 18.0847V6.71353C22.3975 6.78229 22.1026 6.9373 21.8647 7.16175C21.4335 7.55687 20.8699 7.77606 20.2851 7.77606C19.7002 7.77606 19.1366 7.55687 18.7054 7.16175C18.389 6.85731 17.967 6.68724 17.528 6.68724C17.0889 6.68724 16.6669 6.85731 16.3505 7.16175C15.9192 7.55683 15.3556 7.77597 14.7707 7.77597C14.1859 7.77597 13.6222 7.55683 13.1909 7.16175C12.8746 6.85731 12.4526 6.68724 12.0135 6.68724C11.5744 6.68724 11.1524 6.85731 10.836 7.16175C10.4053 7.55704 9.84187 7.77635 9.25722 7.77635C8.67256 7.77635 8.10918 7.55704 7.6784 7.16175C7.36222 6.85729 6.94036 6.68721 6.50143 6.68721C6.0625 6.68721 5.64064 6.85729 5.32446 7.16175C4.8962 7.56143 4.33077 7.78133 3.745 7.77602C3.15914 7.78131 2.59361 7.56142 2.16522 7.16175C1.92709 6.93717 1.63197 6.78215 1.31192 6.71353Z" fill="#23A698"/>
<path d="M9.25784 11.6432C8.67178 11.6482 8.10627 11.4275 7.67838 11.027C7.44055 10.8039 7.14684 10.6493 6.82833 10.5795C6.7864 10.572 6.74635 10.5563 6.71047 10.5334C6.67459 10.5104 6.64358 10.4806 6.61922 10.4457C6.57001 10.3751 6.55085 10.2879 6.56595 10.2032C6.58104 10.1186 6.62916 10.0433 6.69972 9.99413C6.77027 9.94492 6.85748 9.92576 6.94216 9.94086C7.36652 10.0279 7.75968 10.2274 8.08054 10.5185C8.39672 10.8232 8.81873 10.9935 9.25784 10.9935C9.69695 10.9935 10.119 10.8232 10.4351 10.5185C10.8672 10.1226 11.4321 9.90324 12.0181 9.90384C12.6042 9.90444 13.1686 10.1249 13.5999 10.5217L13.7047 10.6041C13.7393 10.6298 13.7684 10.6622 13.7904 10.6993C13.8124 10.7364 13.8268 10.7775 13.8327 10.8202C13.8385 10.8629 13.8359 10.9064 13.8248 10.9481C13.8136 10.9897 13.7943 11.0288 13.768 11.0629C13.7416 11.097 13.7087 11.1255 13.6711 11.1468C13.6336 11.168 13.5922 11.1816 13.5494 11.1866C13.5065 11.1917 13.4631 11.1881 13.4217 11.1762C13.3802 11.1643 13.3416 11.1442 13.308 11.1172L13.1977 11.0309C12.8804 10.7218 12.4543 10.55 12.0114 10.5525C11.7941 10.5503 11.5785 10.5911 11.3771 10.6725C11.1757 10.754 10.9923 10.8744 10.8376 11.027C10.4097 11.4276 9.84402 11.6483 9.25784 11.6432Z" fill="#23A698"/>
<path d="M2.13535 10.921C2.06743 10.9211 2.00117 10.8999 1.94595 10.8603C1.67153 10.6498 1.33258 10.5411 0.986922 10.5525C0.900906 10.5525 0.818413 10.5184 0.75759 10.4575C0.696767 10.3967 0.662598 10.3142 0.662598 10.2282C0.662598 10.1422 0.696767 10.0597 0.75759 9.99888C0.818413 9.93806 0.900906 9.90389 0.986922 9.90389C1.46836 9.89188 1.93968 10.0432 2.32411 10.3333C2.37985 10.3734 2.42144 10.4301 2.44289 10.4953C2.46435 10.5605 2.46456 10.6308 2.4435 10.6961C2.42245 10.7615 2.38121 10.8184 2.32572 10.8588C2.27023 10.8992 2.20335 10.921 2.13471 10.921H2.13535Z" fill="#23A698"/>
<path d="M20.2849 11.6432C19.7124 11.6508 19.1587 11.4397 18.7366 11.053C18.7019 11.027 18.6729 10.9944 18.651 10.9571C18.6292 10.9197 18.615 10.8784 18.6094 10.8355C18.6038 10.7926 18.6068 10.749 18.6183 10.7073C18.6298 10.6655 18.6496 10.6265 18.6763 10.5926C18.7031 10.5586 18.7364 10.5303 18.7743 10.5094C18.8122 10.4885 18.8539 10.4754 18.8969 10.4709C18.94 10.4663 18.9835 10.4704 19.0249 10.4829C19.0663 10.4955 19.1048 10.5161 19.1381 10.5438C19.4467 10.8383 19.8584 11.0001 20.2849 10.9946C20.5027 10.9969 20.7189 10.9561 20.9209 10.8746C21.1229 10.7931 21.3069 10.6725 21.4622 10.5198C21.8901 10.1193 22.4556 9.89863 23.0416 9.90355C23.1277 9.90355 23.2102 9.93772 23.271 9.99855C23.3318 10.0594 23.366 10.1419 23.366 10.2279C23.366 10.3139 23.3318 10.3964 23.271 10.4572C23.2102 10.518 23.1277 10.5522 23.0416 10.5522C22.8238 10.5499 22.6077 10.5907 22.4056 10.6722C22.2036 10.7537 22.0197 10.8742 21.8644 11.027C21.4365 11.4275 20.871 11.6482 20.2849 11.6432Z" fill="#23A698"/>
<path d="M9.25782 15.3234C8.67237 15.3288 8.10716 15.1094 7.67869 14.7104L7.61382 14.6588C7.5524 14.6041 7.51405 14.5281 7.50654 14.4462C7.49903 14.3643 7.52292 14.2826 7.57337 14.2177C7.62381 14.1527 7.69706 14.1094 7.77827 14.0964C7.85948 14.0834 7.9426 14.1017 8.01079 14.1477L8.07858 14.2012C8.39534 14.5051 8.81735 14.6749 9.25636 14.6749C9.69537 14.6749 10.1174 14.5051 10.4341 14.2012C10.862 13.8025 11.4266 13.5834 12.0113 13.5892H12.0535C12.1395 13.5892 12.222 13.6234 12.2828 13.6842C12.3437 13.745 12.3778 13.8275 12.3778 13.9135C12.3778 13.9995 12.3437 14.082 12.2828 14.1428C12.222 14.2037 12.1395 14.2378 12.0535 14.2378H12.0113C11.7942 14.2356 11.5787 14.2762 11.3772 14.3573C11.1757 14.4385 10.9923 14.5586 10.8373 14.7107C10.4088 15.1098 9.84337 15.3291 9.25782 15.3234Z" fill="#23A698"/>
<path d="M3.74435 15.3233C3.15892 15.3287 2.59374 15.1093 2.16521 14.7104C2.0096 14.5581 1.82549 14.438 1.62343 14.3569C1.42137 14.2758 1.2053 14.2354 0.987593 14.2378C0.901577 14.2378 0.819084 14.2037 0.758261 14.1428C0.697439 14.082 0.663269 13.9995 0.663269 13.9135C0.663269 13.8275 0.697439 13.745 0.758261 13.6842C0.819084 13.6233 0.901577 13.5892 0.987593 13.5892C1.57302 13.5839 2.1382 13.8032 2.56673 14.2021C2.72223 14.3547 2.90629 14.475 3.10836 14.5562C3.31044 14.6375 3.52656 14.6781 3.74435 14.6757C4.03866 14.6859 4.32932 14.6081 4.57916 14.4522C4.65227 14.4068 4.74042 14.3924 4.8242 14.412C4.90798 14.4316 4.98054 14.4837 5.02592 14.5568C5.07129 14.6299 5.08576 14.7181 5.06615 14.8018C5.04653 14.8856 4.99444 14.9582 4.92132 15.0036C4.56831 15.222 4.15938 15.3331 3.74435 15.3233Z" fill="#23A698"/>
<path d="M20.2849 15.3234C19.6995 15.3287 19.1343 15.1093 18.7058 14.7104C18.5502 14.5579 18.3661 14.4377 18.1641 14.3564C17.962 14.2752 17.7459 14.2345 17.5281 14.2369C17.374 14.2354 17.2205 14.2546 17.0715 14.294C17.0304 14.3051 16.9874 14.3081 16.9452 14.3026C16.9029 14.2972 16.8621 14.2835 16.8252 14.2623C16.7882 14.2411 16.7558 14.2129 16.7297 14.1792C16.7037 14.1454 16.6845 14.1069 16.6734 14.0658C16.6622 14.0247 16.6593 13.9818 16.6647 13.9395C16.6701 13.8972 16.6838 13.8565 16.705 13.8195C16.7262 13.7825 16.7545 13.7501 16.7882 13.724C16.8219 13.698 16.8604 13.6788 16.9015 13.6677C17.106 13.6136 17.3167 13.5869 17.5281 13.5882C18.1136 13.5829 18.6787 13.8023 19.1073 14.2012C19.424 14.5051 19.846 14.6747 20.2849 14.6747C20.7238 14.6747 21.1458 14.5051 21.4625 14.2012C21.891 13.8023 22.4562 13.5829 23.0416 13.5882C23.1277 13.5882 23.2102 13.6224 23.271 13.6832C23.3318 13.744 23.366 13.8265 23.366 13.9126C23.366 13.9986 23.3318 14.0811 23.271 14.1419C23.2102 14.2027 23.1277 14.2369 23.0416 14.2369C22.8239 14.2345 22.6078 14.2752 22.4057 14.3564C22.2036 14.4377 22.0196 14.5579 21.864 14.7104C21.4355 15.1093 20.8703 15.3287 20.2849 15.3234Z" fill="#23A698"/>
<path d="M14.006 16.4825C13.972 16.4824 13.9381 16.4802 13.9044 16.476C13.8032 16.4631 13.7055 16.4303 13.6171 16.3794C13.5286 16.3285 13.4511 16.2606 13.3891 16.1796L11.1383 13.2571C11.0129 13.0937 10.9574 12.8874 10.9839 12.6832C11.0103 12.4791 11.1166 12.2937 11.2794 12.1677L14.5116 9.67815C14.7838 9.46991 15.122 9.36695 15.4641 9.38821L17.0663 9.49199C17.1123 9.49493 17.1572 9.50764 17.1979 9.52928C17.2386 9.55093 17.2742 9.581 17.3024 9.61751L18.4816 11.1493C18.5097 11.1857 18.5297 11.2277 18.5403 11.2724C18.551 11.3171 18.552 11.3636 18.5433 11.4087L18.2345 12.9843C18.1684 13.3208 17.9821 13.6216 17.7104 13.8308L14.4785 16.32C14.3434 16.4251 14.1771 16.4823 14.006 16.4825ZM15.373 10.0339C15.2046 10.0339 15.041 10.0895 14.9076 10.1922L11.6757 12.6811C11.6623 12.6913 11.6512 12.7041 11.6428 12.7187C11.6344 12.7333 11.629 12.7494 11.6268 12.7661C11.6247 12.7828 11.6259 12.7998 11.6303 12.816C11.6347 12.8323 11.6423 12.8475 11.6527 12.8607L13.9032 15.7832C13.9241 15.8098 13.9547 15.8271 13.9882 15.8315C14.0218 15.8358 14.0558 15.8269 14.0828 15.8066L17.315 13.3171C17.4619 13.204 17.5626 13.0413 17.5982 12.8595L17.8787 11.4282L16.8779 10.1296L15.4223 10.0356C15.4054 10.0343 15.3892 10.0339 15.373 10.0339Z" fill="#23A698"/>
<path d="M18.2244 11.6708C18.1749 11.671 18.126 11.6598 18.0815 11.6382C18.037 11.6165 17.998 11.585 17.9676 11.5459L16.7893 10.0154C16.737 9.94739 16.7138 9.8614 16.7248 9.77629C16.7358 9.69119 16.7801 9.61391 16.848 9.56139L18.1096 8.58842C18.2436 8.48525 18.4131 8.43953 18.5807 8.4613C18.7484 8.48308 18.9006 8.57057 19.0038 8.70453L19.8 9.73847C19.9029 9.87258 19.9484 10.042 19.9266 10.2096C19.9047 10.3772 19.8174 10.5293 19.6836 10.6326L18.4223 11.6056C18.3653 11.6485 18.2957 11.6714 18.2244 11.6708ZM17.4992 9.87372L18.2831 10.8918L19.2788 10.1247L18.4897 9.09988L17.4992 9.87372Z" fill="#23A698"/>
<path d="M5.11911 14.7837C5.06378 14.7837 5.00938 14.7695 4.96107 14.7426C4.91276 14.7156 4.87215 14.6767 4.84311 14.6296L2.72916 11.2057C2.68398 11.1326 2.66971 11.0445 2.68947 10.9608C2.70924 10.8771 2.76143 10.8047 2.83457 10.7595L5.99057 8.81126C6.06377 8.76611 6.15191 8.75188 6.2356 8.77171C6.31929 8.79153 6.39167 8.84379 6.43684 8.91699L8.55046 12.3409C8.59564 12.414 8.60992 12.5022 8.59015 12.5858C8.57038 12.6695 8.51819 12.7419 8.44505 12.7871L5.28938 14.7354C5.2382 14.7669 5.17925 14.7837 5.11911 14.7837ZM3.45143 11.1412L5.22419 14.0131L7.82851 12.4054L6.05543 9.53515L3.45143 11.1412Z" fill="#23A698"/>
<path d="M5.50153 16.0978C5.39034 16.0977 5.28102 16.0693 5.18391 16.0151C5.08681 15.961 5.00513 15.883 4.94661 15.7884L4.57299 15.1806C4.48267 15.0338 4.45425 14.8571 4.49395 14.6893C4.53364 14.5215 4.63822 14.3763 4.78477 14.2855L8.27028 12.1333C8.41715 12.043 8.59383 12.0146 8.76161 12.0543C8.92939 12.0939 9.07459 12.1985 9.16542 12.3451L9.54066 12.9532C9.58578 13.0258 9.61611 13.1066 9.6299 13.1909C9.64369 13.2753 9.64067 13.3615 9.62102 13.4447C9.60137 13.5279 9.56547 13.6064 9.51539 13.6756C9.46531 13.7449 9.40204 13.8036 9.3292 13.8483L5.84272 16.0005C5.74024 16.064 5.62209 16.0977 5.50153 16.0978ZM8.43991 12.4093L8.6105 12.6853L5.12434 14.8375L5.49893 15.4479L8.98769 13.2973L8.43991 12.4093Z" fill="#23A698"/>
<path d="M2.66951 11.5099C2.55845 11.5101 2.44919 11.4818 2.35213 11.4278C2.25506 11.3738 2.17341 11.2959 2.11492 11.2015L1.73967 10.5934C1.69457 10.5208 1.66426 10.44 1.6505 10.3556C1.63673 10.2712 1.63977 10.185 1.65946 10.1018C1.67914 10.0186 1.71507 9.94014 1.76518 9.87088C1.81529 9.80163 1.8786 9.74297 1.95146 9.69826L5.43794 7.54605C5.58474 7.45566 5.76139 7.4272 5.92914 7.4669C6.0969 7.50661 6.24205 7.61123 6.33275 7.75783L6.70832 8.36756C6.75343 8.44017 6.78373 8.52099 6.7975 8.60535C6.81127 8.68972 6.80822 8.77597 6.78854 8.85916C6.76886 8.94235 6.73293 9.02082 6.68282 9.09007C6.63271 9.15933 6.5694 9.21799 6.49654 9.2627L3.01005 11.4133C2.90776 11.4766 2.78981 11.5101 2.66951 11.5099ZM5.60821 7.82205L5.77848 8.09805L2.292 10.2503L2.66692 10.8606L6.15567 8.70907L5.60821 7.82205Z" fill="#23A698"/>
<path d="M11.0815 8.92248C11.0212 8.92255 10.962 8.90594 10.9106 8.87448C10.8591 8.84302 10.8174 8.79795 10.79 8.74424C10.7625 8.69053 10.7505 8.63028 10.7552 8.57016C10.7599 8.51003 10.7811 8.45238 10.8165 8.40357C10.9758 8.17654 11.4652 7.86421 12.1865 8.31438C12.2227 8.33695 12.2541 8.36643 12.2789 8.40114C12.3037 8.43585 12.3214 8.47511 12.3311 8.51667C12.3407 8.55823 12.3421 8.60128 12.3351 8.64336C12.3281 8.68545 12.3128 8.72574 12.2903 8.76194C12.2677 8.79815 12.2382 8.82955 12.2035 8.85436C12.1688 8.87916 12.1295 8.89689 12.088 8.90653C12.0464 8.91617 12.0034 8.91752 11.9613 8.91052C11.9192 8.90352 11.8789 8.8883 11.8427 8.86573C11.5699 8.69481 11.4013 8.71751 11.3393 8.78789C11.3105 8.82958 11.272 8.86362 11.2271 8.88707C11.1821 8.91052 11.1322 8.92268 11.0815 8.92248Z" fill="#23A698"/>
<path d="M18.0814 17.0306C18.0211 17.0307 17.9619 17.014 17.9105 16.9826C17.859 16.9511 17.8173 16.9061 17.7899 16.8523C17.7624 16.7986 17.7504 16.7384 17.7551 16.6783C17.7598 16.6181 17.781 16.5605 17.8164 16.5117C17.9757 16.2846 18.4651 15.9726 19.1864 16.4225C19.2595 16.4681 19.3115 16.5408 19.3309 16.6248C19.3504 16.7087 19.3357 16.7969 19.2901 16.87C19.2446 16.9432 19.1718 16.9952 19.0879 17.0146C19.0039 17.0341 18.9157 17.0194 18.8426 16.9738C18.5698 16.8029 18.4012 16.8259 18.3392 16.896C18.3104 16.9377 18.2719 16.9717 18.2269 16.9952C18.182 17.0186 18.1321 17.0308 18.0814 17.0306Z" fill="#23A698"/>
<path d="M10.8341 18.0846C10.7738 18.0847 10.7146 18.0681 10.6632 18.0366C10.6117 18.0052 10.57 17.9601 10.5425 17.9064C10.5151 17.8527 10.5031 17.7924 10.5078 17.7323C10.5125 17.6722 10.5337 17.6145 10.5691 17.5657C10.7283 17.3387 11.2177 17.0267 11.939 17.4765C11.9752 17.4991 12.0066 17.5286 12.0315 17.5633C12.0563 17.598 12.074 17.6373 12.0836 17.6788C12.0933 17.7204 12.0946 17.7634 12.0876 17.8055C12.0806 17.8476 12.0654 17.8879 12.0428 17.9241C12.0203 17.9603 11.9908 17.9917 11.9561 18.0165C11.9214 18.0413 11.8821 18.059 11.8405 18.0687C11.799 18.0783 11.7559 18.0797 11.7138 18.0727C11.6718 18.0657 11.6315 18.0504 11.5953 18.0279C11.3225 17.857 11.1539 17.88 11.0919 17.95C11.0631 17.9918 11.0246 18.0258 10.9797 18.0493C10.9347 18.0728 10.8848 18.0849 10.8341 18.0846Z" fill="#23A698"/>
<path d="M5.43276 17.5171C5.37246 17.5171 5.31331 17.5005 5.26186 17.4691C5.2104 17.4376 5.16866 17.3925 5.14123 17.3388C5.11381 17.2851 5.10177 17.2249 5.10646 17.1647C5.11115 17.1046 5.13237 17.047 5.16779 16.9981C5.32703 16.7711 5.81644 16.4591 6.53774 16.909C6.61085 16.9545 6.66286 17.0273 6.68232 17.1112C6.70179 17.1952 6.68711 17.2834 6.64152 17.3565C6.59593 17.4296 6.52317 17.4817 6.43923 17.5011C6.3553 17.5206 6.26707 17.5059 6.19395 17.4603C5.92087 17.2894 5.75255 17.3121 5.6906 17.3825C5.66179 17.4242 5.62325 17.4582 5.57833 17.4817C5.5334 17.5051 5.48344 17.5173 5.43276 17.5171Z" fill="#23A698"/>
</svg>
