<svg width="16" height="16" viewBox="0 0 16 16" fill="none" xmlns="http://www.w3.org/2000/svg">
<path d="M15.2319 2.62634L11.6747 3.05492C11.5569 3.0692 11.5069 3.21384 11.5908 3.29777L12.6497 4.3567L8.61402 8.39242L6.79616 6.57634C6.68366 6.46384 6.5033 6.46563 6.39259 6.57634L0.647945 12.3228C0.621359 12.3496 0.606445 12.3859 0.606445 12.4237C0.606445 12.4615 0.621359 12.4977 0.647945 12.5246L1.45152 13.3317C1.50687 13.3871 1.59795 13.3871 1.6533 13.3317L6.59437 8.39242L8.41044 10.2085C8.52294 10.3192 8.7033 10.3192 8.81402 10.2085L13.6604 5.36563L14.7194 6.42456C14.7383 6.44344 14.7622 6.45662 14.7883 6.4626C14.8144 6.46857 14.8417 6.4671 14.867 6.45836C14.8923 6.44961 14.9146 6.43394 14.9315 6.41313C14.9483 6.39232 14.959 6.3672 14.9622 6.34063L15.3908 2.78349C15.4033 2.69242 15.3247 2.61384 15.2319 2.62634Z" fill="#23A698"/>
</svg>
